G04 #@! TF.GenerationSoftware,KiCad,Pcbnew,8.0.4*
G04 #@! TF.CreationDate,2024-08-20T15:03:28-04:00*
G04 #@! TF.ProjectId,VectexController,56656374-6578-4436-9f6e-74726f6c6c65,rev?*
G04 #@! TF.SameCoordinates,Original*
G04 #@! TF.FileFunction,Copper,L1,Top*
G04 #@! TF.FilePolarity,Positive*
%FSLAX46Y46*%
G04 Gerber Fmt 4.6, Leading zero omitted, Abs format (unit mm)*
G04 Created by KiCad (PCBNEW 8.0.4) date 2024-08-20 15:03:28*
%MOMM*%
%LPD*%
G01*
G04 APERTURE LIST*
G04 Aperture macros list*
%AMRoundRect*
0 Rectangle with rounded corners*
0 $1 Rounding radius*
0 $2 $3 $4 $5 $6 $7 $8 $9 X,Y pos of 4 corners*
0 Add a 4 corners polygon primitive as box body*
4,1,4,$2,$3,$4,$5,$6,$7,$8,$9,$2,$3,0*
0 Add four circle primitives for the rounded corners*
1,1,$1+$1,$2,$3*
1,1,$1+$1,$4,$5*
1,1,$1+$1,$6,$7*
1,1,$1+$1,$8,$9*
0 Add four rect primitives between the rounded corners*
20,1,$1+$1,$2,$3,$4,$5,0*
20,1,$1+$1,$4,$5,$6,$7,0*
20,1,$1+$1,$6,$7,$8,$9,0*
20,1,$1+$1,$8,$9,$2,$3,0*%
%AMFreePoly0*
4,1,19,-0.750000,0.000000,-0.734505,0.151663,-0.679731,0.316964,-0.588312,0.465177,-0.465177,0.588312,-0.316964,0.679731,-0.151663,0.734505,0.000000,0.750000,0.750000,0.750000,0.750000,-0.750000,0.000000,-0.750000,-0.151663,-0.734505,-0.316964,-0.679731,-0.465177,-0.588312,-0.588312,-0.465177,-0.679731,-0.316964,-0.734505,-0.151663,-0.750000,0.000000,-0.750000,0.000000,-0.750000,0.000000,
$1*%
%AMFreePoly1*
4,1,18,-0.750000,0.750000,0.000000,0.750000,0.151663,0.734505,0.316964,0.679731,0.465177,0.588312,0.588312,0.465177,0.679731,0.316964,0.734505,0.151663,0.750000,0.000000,0.734505,-0.151663,0.679731,-0.316964,0.588312,-0.465177,0.465177,-0.588312,0.316964,-0.679731,0.151663,-0.734505,0.000000,-0.750000,-0.750000,-0.750000,-0.750000,0.750000,-0.750000,0.750000,$1*%
G04 Aperture macros list end*
G04 #@! TA.AperFunction,SMDPad,CuDef*
%ADD10FreePoly0,180.000000*%
G04 #@! TD*
G04 #@! TA.AperFunction,SMDPad,CuDef*
%ADD11FreePoly1,180.000000*%
G04 #@! TD*
G04 #@! TA.AperFunction,ComponentPad*
%ADD12R,1.700000X1.700000*%
G04 #@! TD*
G04 #@! TA.AperFunction,ComponentPad*
%ADD13O,1.700000X1.700000*%
G04 #@! TD*
G04 #@! TA.AperFunction,ComponentPad*
%ADD14RoundRect,0.250000X-0.600000X-0.750000X0.600000X-0.750000X0.600000X0.750000X-0.600000X0.750000X0*%
G04 #@! TD*
G04 #@! TA.AperFunction,ComponentPad*
%ADD15O,1.700000X2.000000*%
G04 #@! TD*
G04 #@! TA.AperFunction,ComponentPad*
%ADD16RoundRect,0.250000X-0.600000X-0.725000X0.600000X-0.725000X0.600000X0.725000X-0.600000X0.725000X0*%
G04 #@! TD*
G04 #@! TA.AperFunction,ComponentPad*
%ADD17O,1.700000X1.950000*%
G04 #@! TD*
G04 #@! TA.AperFunction,ComponentPad*
%ADD18R,1.560000X1.560000*%
G04 #@! TD*
G04 #@! TA.AperFunction,ComponentPad*
%ADD19C,1.560000*%
G04 #@! TD*
G04 #@! TA.AperFunction,SMDPad,CuDef*
%ADD20FreePoly0,270.000000*%
G04 #@! TD*
G04 #@! TA.AperFunction,SMDPad,CuDef*
%ADD21R,1.500000X1.500000*%
G04 #@! TD*
G04 #@! TA.AperFunction,SMDPad,CuDef*
%ADD22FreePoly1,270.000000*%
G04 #@! TD*
G04 #@! TA.AperFunction,SMDPad,CuDef*
%ADD23FreePoly0,0.000000*%
G04 #@! TD*
G04 #@! TA.AperFunction,SMDPad,CuDef*
%ADD24FreePoly1,0.000000*%
G04 #@! TD*
G04 #@! TA.AperFunction,ComponentPad*
%ADD25C,1.600000*%
G04 #@! TD*
G04 #@! TA.AperFunction,ComponentPad*
%ADD26O,1.600000X1.600000*%
G04 #@! TD*
G04 #@! TA.AperFunction,ComponentPad*
%ADD27C,3.600000*%
G04 #@! TD*
G04 #@! TA.AperFunction,ConnectorPad*
%ADD28C,5.700000*%
G04 #@! TD*
G04 #@! TA.AperFunction,SMDPad,CuDef*
%ADD29FreePoly0,90.000000*%
G04 #@! TD*
G04 #@! TA.AperFunction,SMDPad,CuDef*
%ADD30FreePoly1,90.000000*%
G04 #@! TD*
G04 #@! TA.AperFunction,ViaPad*
%ADD31C,1.000000*%
G04 #@! TD*
G04 #@! TA.AperFunction,Conductor*
%ADD32C,0.500000*%
G04 #@! TD*
G04 APERTURE END LIST*
D10*
X150975000Y-94000000D03*
D11*
X149275000Y-94000000D03*
D12*
X157924466Y-79804466D03*
D13*
X160464466Y-79804466D03*
X157924466Y-82344466D03*
X160464466Y-82344466D03*
X157924466Y-84884466D03*
X160464466Y-84884466D03*
X157924466Y-87424466D03*
X160464466Y-87424466D03*
X157924466Y-89964466D03*
D14*
X178214466Y-80439466D03*
D15*
X180714466Y-80439466D03*
D16*
X121964466Y-88439466D03*
D17*
X124464466Y-88439466D03*
X126964466Y-88439466D03*
D18*
X149704466Y-78224466D03*
D19*
X144704466Y-80724466D03*
X149704466Y-83224466D03*
D18*
X149704466Y-85964466D03*
D19*
X144704466Y-88464466D03*
X149704466Y-90964466D03*
D20*
X117000000Y-78800000D03*
D21*
X117000000Y-80500000D03*
D22*
X117000000Y-82200000D03*
D23*
X142350000Y-94000000D03*
D24*
X144050000Y-94000000D03*
D20*
X189000000Y-81500000D03*
D21*
X189000000Y-83200000D03*
X189000000Y-84900000D03*
X189000000Y-86600000D03*
D22*
X189000000Y-88300000D03*
D25*
X139500000Y-90080000D03*
D26*
X139500000Y-79920000D03*
D25*
X134914466Y-79884466D03*
D26*
X134914466Y-90044466D03*
D14*
X178214466Y-87964466D03*
D15*
X180714466Y-87964466D03*
D27*
X198100000Y-85000000D03*
D28*
X198100000Y-85000000D03*
D14*
X169214466Y-87939466D03*
D15*
X171714466Y-87939466D03*
D27*
X108400000Y-85000000D03*
D28*
X108400000Y-85000000D03*
D14*
X169214466Y-80439466D03*
D15*
X171714466Y-80439466D03*
D16*
X121964466Y-79939466D03*
D17*
X124464466Y-79939466D03*
X126964466Y-79939466D03*
D29*
X117000000Y-90700000D03*
D21*
X117000000Y-89000000D03*
D30*
X117000000Y-87300000D03*
D31*
X189000000Y-90000000D03*
X163000000Y-78000000D03*
X155500000Y-78000000D03*
X163500000Y-91000000D03*
X155000000Y-91000000D03*
D32*
X189000000Y-90000000D02*
X189000000Y-88100000D01*
X178214466Y-80285534D02*
X178214466Y-80439466D01*
X179800000Y-78700000D02*
X178214466Y-80285534D01*
X189000000Y-81700000D02*
X189000000Y-80500000D01*
X189000000Y-80500000D02*
X187200000Y-78700000D01*
X187200000Y-78700000D02*
X179800000Y-78700000D01*
X169214466Y-81214466D02*
X170500000Y-82500000D01*
X169214466Y-80439466D02*
X169214466Y-81214466D01*
X185800000Y-83300000D02*
X189000000Y-83300000D01*
X185000000Y-82500000D02*
X185800000Y-83300000D01*
X170500000Y-82500000D02*
X185000000Y-82500000D01*
X155500000Y-78000000D02*
X163000000Y-78000000D01*
X178214466Y-86785534D02*
X178214466Y-87964466D01*
X185600000Y-84900000D02*
X184500000Y-86000000D01*
X184500000Y-86000000D02*
X179000000Y-86000000D01*
X189000000Y-84900000D02*
X185600000Y-84900000D01*
X179000000Y-86000000D02*
X178214466Y-86785534D01*
X186000000Y-86500000D02*
X182500000Y-90000000D01*
X169214466Y-87939466D02*
X169214466Y-89214466D01*
X189000000Y-86500000D02*
X186000000Y-86500000D01*
X169214466Y-89214466D02*
X170000000Y-90000000D01*
X170000000Y-90000000D02*
X182500000Y-90000000D01*
X148000000Y-88500000D02*
X144000000Y-92500000D01*
X148000000Y-87000000D02*
X148000000Y-88500000D01*
X151500000Y-92500000D02*
X150075000Y-92500000D01*
X149704466Y-83224466D02*
X151724466Y-83224466D01*
X151724466Y-83224466D02*
X152500000Y-84000000D01*
X144000000Y-92500000D02*
X144000000Y-94000000D01*
X149325000Y-93250000D02*
X149325000Y-94000000D01*
X152500000Y-84000000D02*
X152500000Y-91500000D01*
X152500000Y-91500000D02*
X151500000Y-92500000D01*
X149704466Y-85964466D02*
X149035534Y-85964466D01*
X149035534Y-85964466D02*
X148000000Y-87000000D01*
X150075000Y-92500000D02*
X149325000Y-93250000D01*
X155000000Y-91000000D02*
X156000000Y-92000000D01*
X156000000Y-92000000D02*
X162500000Y-92000000D01*
X162500000Y-92000000D02*
X163500000Y-91000000D01*
X121964466Y-88439466D02*
X121964466Y-90035534D01*
X121300000Y-90700000D02*
X117000000Y-90700000D01*
X121964466Y-90035534D02*
X121300000Y-90700000D01*
X117800000Y-78000000D02*
X117000000Y-78800000D01*
X121964466Y-79939466D02*
X121964466Y-78464466D01*
X121500000Y-78000000D02*
X117800000Y-78000000D01*
X121964466Y-78464466D02*
X121500000Y-78000000D01*
X118700000Y-82200000D02*
X117000000Y-82200000D01*
X152980000Y-81500000D02*
X149704466Y-78224466D01*
X126964466Y-82035534D02*
X126000000Y-83000000D01*
X119500000Y-83000000D02*
X118700000Y-82200000D01*
X126000000Y-83000000D02*
X119500000Y-83000000D01*
X126964466Y-79939466D02*
X126964466Y-82035534D01*
X153500000Y-92000000D02*
X153500000Y-82000000D01*
X151500000Y-94000000D02*
X150925000Y-94000000D01*
X153000000Y-81500000D02*
X152980000Y-81500000D01*
X153500000Y-82000000D02*
X153000000Y-81500000D01*
X153500000Y-92000000D02*
X151500000Y-94000000D01*
X124000000Y-82000000D02*
X121000000Y-82000000D01*
X119500000Y-80500000D02*
X117000000Y-80500000D01*
X121000000Y-82000000D02*
X119500000Y-80500000D01*
X124464466Y-79939466D02*
X124464466Y-81535534D01*
X124464466Y-81535534D02*
X124000000Y-82000000D01*
X118800000Y-85500000D02*
X117000000Y-87300000D01*
X125500000Y-85500000D02*
X118800000Y-85500000D01*
X126964466Y-86964466D02*
X125500000Y-85500000D01*
X143035534Y-88464466D02*
X142400000Y-89100000D01*
X144704466Y-88464466D02*
X143035534Y-88464466D01*
X126964466Y-88439466D02*
X126964466Y-86964466D01*
X142400000Y-89100000D02*
X142400000Y-94000000D01*
X119500000Y-87500000D02*
X119500000Y-88500000D01*
X120500000Y-86500000D02*
X119500000Y-87500000D01*
X119000000Y-89000000D02*
X117000000Y-89000000D01*
X124464466Y-88439466D02*
X124464466Y-86964466D01*
X124000000Y-86500000D02*
X120500000Y-86500000D01*
X119500000Y-88500000D02*
X119000000Y-89000000D01*
X124464466Y-86964466D02*
X124000000Y-86500000D01*
M02*
