M48
; DRILL file {KiCad 8.0.4} date 2024-08-20T15:05:59-0400
; FORMAT={-:-/ absolute / metric / decimal}
; #@! TF.CreationDate,2024-08-20T15:05:59-04:00
; #@! TF.GenerationSoftware,Kicad,Pcbnew,8.0.4
; #@! TF.FileFunction,Plated,1,2,PTH
FMAT,2
METRIC
; #@! TA.AperFunction,Plated,PTH,ViaDrill
T1C0.600
; #@! TA.AperFunction,Plated,PTH,ComponentDrill
T2C0.800
; #@! TA.AperFunction,Plated,PTH,ComponentDrill
T3C0.950
; #@! TA.AperFunction,Plated,PTH,ComponentDrill
T4C1.000
; #@! TA.AperFunction,Plated,PTH,ComponentDrill
T5C3.200
%
G90
G05
T1
X155.0Y-91.0
X155.5Y-78.0
X163.0Y-78.0
X163.5Y-91.0
X189.0Y-90.0
T2
X134.914Y-79.884
X134.914Y-90.044
X139.5Y-79.92
X139.5Y-90.08
T3
X121.964Y-79.939
X121.964Y-88.439
X124.464Y-79.939
X124.464Y-88.439
X126.964Y-79.939
X126.964Y-88.439
T4
X144.704Y-80.724
X144.704Y-88.464
X149.704Y-78.224
X149.704Y-83.224
X149.704Y-85.964
X149.704Y-90.964
X157.924Y-79.804
X157.924Y-82.344
X157.924Y-84.884
X157.924Y-87.424
X157.924Y-89.964
X160.464Y-79.804
X160.464Y-82.344
X160.464Y-84.884
X160.464Y-87.424
X169.214Y-80.439
X169.214Y-87.939
X171.714Y-80.439
X171.714Y-87.939
X178.214Y-80.439
X178.214Y-87.964
X180.714Y-80.439
X180.714Y-87.964
T5
X108.4Y-85.0
X198.1Y-85.0
M30
