G04 #@! TF.GenerationSoftware,KiCad,Pcbnew,8.0.4*
G04 #@! TF.CreationDate,2024-08-20T15:03:28-04:00*
G04 #@! TF.ProjectId,VectexController,56656374-6578-4436-9f6e-74726f6c6c65,rev?*
G04 #@! TF.SameCoordinates,Original*
G04 #@! TF.FileFunction,Profile,NP*
%FSLAX46Y46*%
G04 Gerber Fmt 4.6, Leading zero omitted, Abs format (unit mm)*
G04 Created by KiCad (PCBNEW 8.0.4) date 2024-08-20 15:03:28*
%MOMM*%
%LPD*%
G01*
G04 APERTURE LIST*
G04 #@! TA.AperFunction,Profile*
%ADD10C,0.100000*%
G04 #@! TD*
G04 APERTURE END LIST*
D10*
X197999999Y-80000000D02*
X196444414Y-77407356D01*
X133191205Y-95000000D02*
G75*
G02*
X134771021Y-95256145I-5J-5000000D01*
G01*
X159203369Y-95260105D02*
X154796637Y-96739894D01*
X108499999Y-89999999D02*
X111035630Y-93535731D01*
X192168900Y-75000000D02*
G75*
G02*
X196444423Y-77407351I0J-5000400D01*
G01*
X140818129Y-97000000D02*
G75*
G02*
X139238309Y-96743866I-29J5000000D01*
G01*
X192169100Y-95000000D02*
X160795035Y-95000000D01*
X111035533Y-76464467D02*
G75*
G02*
X114571068Y-75000019I3535467J-3535433D01*
G01*
X108499999Y-80000001D02*
X111035503Y-76464446D01*
X192168900Y-75000000D02*
X114571068Y-75000000D01*
X196456483Y-92572528D02*
G75*
G02*
X192169100Y-95000004I-4287383J2572428D01*
G01*
X134771022Y-95256143D02*
X139238312Y-96743857D01*
X140818129Y-97000000D02*
X153204971Y-97000000D01*
X197999999Y-90000000D02*
X196456483Y-92572528D01*
X159203369Y-95260105D02*
G75*
G02*
X160795035Y-95000000I1591731J-4740295D01*
G01*
X114571200Y-95000000D02*
X133191205Y-95000000D01*
X108499999Y-89999999D02*
G75*
G02*
X108499999Y-80000001I1J4999999D01*
G01*
X114571200Y-95000000D02*
G75*
G02*
X111035668Y-93535702I0J5000400D01*
G01*
X197999999Y-80000000D02*
G75*
G02*
X197999999Y-90000000I1J-5000000D01*
G01*
X154796637Y-96739894D02*
G75*
G02*
X153204971Y-97000001I-1591737J4740294D01*
G01*
M02*
