G04 #@! TF.GenerationSoftware,KiCad,Pcbnew,8.0.4*
G04 #@! TF.CreationDate,2024-08-20T15:03:28-04:00*
G04 #@! TF.ProjectId,VectexController,56656374-6578-4436-9f6e-74726f6c6c65,rev?*
G04 #@! TF.SameCoordinates,Original*
G04 #@! TF.FileFunction,Soldermask,Top*
G04 #@! TF.FilePolarity,Negative*
%FSLAX46Y46*%
G04 Gerber Fmt 4.6, Leading zero omitted, Abs format (unit mm)*
G04 Created by KiCad (PCBNEW 8.0.4) date 2024-08-20 15:03:28*
%MOMM*%
%LPD*%
G01*
G04 APERTURE LIST*
G04 Aperture macros list*
%AMRoundRect*
0 Rectangle with rounded corners*
0 $1 Rounding radius*
0 $2 $3 $4 $5 $6 $7 $8 $9 X,Y pos of 4 corners*
0 Add a 4 corners polygon primitive as box body*
4,1,4,$2,$3,$4,$5,$6,$7,$8,$9,$2,$3,0*
0 Add four circle primitives for the rounded corners*
1,1,$1+$1,$2,$3*
1,1,$1+$1,$4,$5*
1,1,$1+$1,$6,$7*
1,1,$1+$1,$8,$9*
0 Add four rect primitives between the rounded corners*
20,1,$1+$1,$2,$3,$4,$5,0*
20,1,$1+$1,$4,$5,$6,$7,0*
20,1,$1+$1,$6,$7,$8,$9,0*
20,1,$1+$1,$8,$9,$2,$3,0*%
%AMFreePoly0*
4,1,37,0.776870,0.776870,0.788000,0.750000,0.788000,-0.750000,0.776870,-0.776870,0.750000,-0.788000,0.000000,-0.788000,-0.003862,-0.787803,-0.155525,-0.772308,-0.163616,-0.770576,-0.328917,-0.715802,-0.336913,-0.712073,-0.485126,-0.620654,-0.492047,-0.615182,-0.615182,-0.492047,-0.620654,-0.485126,-0.712073,-0.336913,-0.715802,-0.328917,-0.770576,-0.163616,-0.772308,-0.155525,-0.787803,-0.003862,
-0.787803,0.003862,-0.772308,0.155525,-0.770576,0.163616,-0.715802,0.328917,-0.712073,0.336913,-0.620654,0.485126,-0.615182,0.492047,-0.492047,0.615182,-0.485126,0.620654,-0.336913,0.712073,-0.328917,0.715802,-0.163616,0.770576,-0.155525,0.772308,-0.003862,0.787803,0.000000,0.788000,0.750000,0.788000,0.776870,0.776870,0.776870,0.776870,$1*%
%AMFreePoly1*
4,1,37,0.003862,0.787803,0.155525,0.772308,0.163616,0.770576,0.328917,0.715802,0.336913,0.712073,0.485126,0.620654,0.492047,0.615182,0.615182,0.492047,0.620654,0.485126,0.712073,0.336913,0.715802,0.328917,0.770576,0.163616,0.772308,0.155525,0.787803,0.003862,0.787803,-0.003862,0.772308,-0.155525,0.770576,-0.163616,0.715802,-0.328917,0.712073,-0.336913,0.620654,-0.485126,
0.615182,-0.492047,0.492047,-0.615182,0.485126,-0.620654,0.336913,-0.712073,0.328917,-0.715802,0.163616,-0.770576,0.155525,-0.772308,0.003862,-0.787803,0.000000,-0.788000,-0.750000,-0.788000,-0.776870,-0.776870,-0.788000,-0.750000,-0.788000,0.750000,-0.776870,0.776870,-0.750000,0.788000,0.000000,0.788000,0.003862,0.787803,0.003862,0.787803,$1*%
G04 Aperture macros list end*
%ADD10FreePoly0,180.000000*%
%ADD11FreePoly1,180.000000*%
%ADD12RoundRect,0.038000X-0.850000X-0.850000X0.850000X-0.850000X0.850000X0.850000X-0.850000X0.850000X0*%
%ADD13O,1.776000X1.776000*%
%ADD14RoundRect,0.261177X-0.626823X-0.776823X0.626823X-0.776823X0.626823X0.776823X-0.626823X0.776823X0*%
%ADD15O,1.776000X2.076000*%
%ADD16RoundRect,0.261177X-0.626823X-0.751823X0.626823X-0.751823X0.626823X0.751823X-0.626823X0.751823X0*%
%ADD17O,1.776000X2.026000*%
%ADD18RoundRect,0.038000X-0.780000X0.780000X-0.780000X-0.780000X0.780000X-0.780000X0.780000X0.780000X0*%
%ADD19C,1.636000*%
%ADD20FreePoly0,270.000000*%
%ADD21RoundRect,0.038000X-0.750000X0.750000X-0.750000X-0.750000X0.750000X-0.750000X0.750000X0.750000X0*%
%ADD22FreePoly1,270.000000*%
%ADD23FreePoly0,0.000000*%
%ADD24FreePoly1,0.000000*%
%ADD25C,1.676000*%
%ADD26O,1.676000X1.676000*%
%ADD27C,3.676000*%
%ADD28C,5.776000*%
%ADD29FreePoly0,90.000000*%
%ADD30RoundRect,0.038000X0.750000X-0.750000X0.750000X0.750000X-0.750000X0.750000X-0.750000X-0.750000X0*%
%ADD31FreePoly1,90.000000*%
G04 APERTURE END LIST*
D10*
X150975000Y-94000000D03*
D11*
X149275000Y-94000000D03*
D12*
X157924466Y-79804466D03*
D13*
X160464466Y-79804466D03*
X157924466Y-82344466D03*
X160464466Y-82344466D03*
X157924466Y-84884466D03*
X160464466Y-84884466D03*
X157924466Y-87424466D03*
X160464466Y-87424466D03*
X157924466Y-89964466D03*
D14*
X178214466Y-80439466D03*
D15*
X180714466Y-80439466D03*
D16*
X121964466Y-88439466D03*
D17*
X124464466Y-88439466D03*
X126964466Y-88439466D03*
D18*
X149704466Y-78224466D03*
D19*
X144704466Y-80724466D03*
X149704466Y-83224466D03*
D18*
X149704466Y-85964466D03*
D19*
X144704466Y-88464466D03*
X149704466Y-90964466D03*
D20*
X117000000Y-78800000D03*
D21*
X117000000Y-80500000D03*
D22*
X117000000Y-82200000D03*
D23*
X142350000Y-94000000D03*
D24*
X144050000Y-94000000D03*
D20*
X189000000Y-81500000D03*
D21*
X189000000Y-83200000D03*
X189000000Y-84900000D03*
X189000000Y-86600000D03*
D22*
X189000000Y-88300000D03*
D25*
X139500000Y-90080000D03*
D26*
X139500000Y-79920000D03*
D25*
X134914466Y-79884466D03*
D26*
X134914466Y-90044466D03*
D14*
X178214466Y-87964466D03*
D15*
X180714466Y-87964466D03*
D27*
X198100000Y-85000000D03*
D28*
X198100000Y-85000000D03*
D14*
X169214466Y-87939466D03*
D15*
X171714466Y-87939466D03*
D27*
X108400000Y-85000000D03*
D28*
X108400000Y-85000000D03*
D14*
X169214466Y-80439466D03*
D15*
X171714466Y-80439466D03*
D16*
X121964466Y-79939466D03*
D17*
X124464466Y-79939466D03*
X126964466Y-79939466D03*
D29*
X117000000Y-90700000D03*
D30*
X117000000Y-89000000D03*
D31*
X117000000Y-87300000D03*
M02*
