%TF.GenerationSoftware,KiCad,Pcbnew,8.0.4*%
%TF.CreationDate,2024-08-20T15:06:30-04:00*%
%TF.ProjectId,VectexController,56656374-6578-4436-9f6e-74726f6c6c65,rev?*%
%TF.SameCoordinates,Original*%
%TF.FileFunction,Drillmap*%
%TF.FilePolarity,Positive*%
%FSLAX45Y45*%
G04 Gerber Fmt 4.5, Leading zero omitted, Abs format (unit mm)*
G04 Created by KiCad (PCBNEW 8.0.4) date 2024-08-20 15:06:30*
%MOMM*%
%LPD*%
G01*
G04 APERTURE LIST*
%ADD10C,0.100000*%
%ADD11C,0.200000*%
%ADD12C,0.320000*%
G04 APERTURE END LIST*
D10*
X19800000Y-8000000D02*
X19644441Y-7740736D01*
X13319120Y-9500000D02*
G75*
G02*
X13477102Y-9525615I-1J-500000D01*
G01*
X15920337Y-9526011D02*
X15479664Y-9673989D01*
X10850000Y-9000000D02*
X11103563Y-9353573D01*
X19216890Y-7500000D02*
G75*
G02*
X19644442Y-7740735I0J-500040D01*
G01*
X14081813Y-9700000D02*
G75*
G02*
X13923831Y-9674387I-3J500000D01*
G01*
X19216910Y-9500000D02*
X16079503Y-9500000D01*
X11103553Y-7646447D02*
G75*
G02*
X11457107Y-7500002I353547J-353543D01*
G01*
X10850000Y-8000000D02*
X11103550Y-7646445D01*
X19216890Y-7500000D02*
X11457107Y-7500000D01*
X19645648Y-9257253D02*
G75*
G02*
X19216910Y-9500000I-428738J257243D01*
G01*
X13477102Y-9525614D02*
X13923831Y-9674386D01*
X14081813Y-9700000D02*
X15320497Y-9700000D01*
X19800000Y-9000000D02*
X19645648Y-9257253D01*
X15920337Y-9526011D02*
G75*
G02*
X16079503Y-9500000I159173J-474030D01*
G01*
X11457120Y-9500000D02*
X13319120Y-9500000D01*
X10850000Y-9000000D02*
G75*
G02*
X10850000Y-8000000I0J500000D01*
G01*
X11457120Y-9500000D02*
G75*
G02*
X11103567Y-9353570I0J500040D01*
G01*
X19800000Y-8000000D02*
G75*
G02*
X19800000Y-9000000I0J-500000D01*
G01*
X15479664Y-9673989D02*
G75*
G02*
X15320497Y-9700000I-159174J474029D01*
G01*
D11*
D10*
X15470000Y-9070000D02*
X15530000Y-9130000D01*
X15530000Y-9070000D02*
X15470000Y-9130000D01*
X15520000Y-7770000D02*
X15580000Y-7830000D01*
X15580000Y-7770000D02*
X15520000Y-7830000D01*
X16270000Y-7770000D02*
X16330000Y-7830000D01*
X16330000Y-7770000D02*
X16270000Y-7830000D01*
X16320000Y-9070000D02*
X16380000Y-9130000D01*
X16380000Y-9070000D02*
X16320000Y-9130000D01*
X18870000Y-8970000D02*
X18930000Y-9030000D01*
X18930000Y-8970000D02*
X18870000Y-9030000D01*
X13531447Y-7988447D02*
G75*
G02*
X13451447Y-7988447I-40000J0D01*
G01*
X13451447Y-7988447D02*
G75*
G02*
X13531447Y-7988447I40000J0D01*
G01*
X13531447Y-9004447D02*
G75*
G02*
X13451447Y-9004447I-40000J0D01*
G01*
X13451447Y-9004447D02*
G75*
G02*
X13531447Y-9004447I40000J0D01*
G01*
X13990000Y-7992000D02*
G75*
G02*
X13910000Y-7992000I-40000J0D01*
G01*
X13910000Y-7992000D02*
G75*
G02*
X13990000Y-7992000I40000J0D01*
G01*
X13990000Y-9008000D02*
G75*
G02*
X13910000Y-9008000I-40000J0D01*
G01*
X13910000Y-9008000D02*
G75*
G02*
X13990000Y-9008000I40000J0D01*
G01*
X12196447Y-7946447D02*
X12196447Y-8041447D01*
X12148947Y-7993947D02*
X12243947Y-7993947D01*
X12196447Y-8796447D02*
X12196447Y-8891447D01*
X12148947Y-8843947D02*
X12243947Y-8843947D01*
X12446447Y-7946447D02*
X12446447Y-8041447D01*
X12398947Y-7993947D02*
X12493947Y-7993947D01*
X12446447Y-8796447D02*
X12446447Y-8891447D01*
X12398947Y-8843947D02*
X12493947Y-8843947D01*
X12696447Y-7946447D02*
X12696447Y-8041447D01*
X12648947Y-7993947D02*
X12743947Y-7993947D01*
X12696447Y-8796447D02*
X12696447Y-8891447D01*
X12648947Y-8843947D02*
X12743947Y-8843947D01*
X14505802Y-8107802D02*
X14505802Y-8037091D01*
X14435091Y-8037091D01*
X14435091Y-8107802D01*
X14505802Y-8107802D01*
X14505802Y-8881802D02*
X14505802Y-8811091D01*
X14435091Y-8811091D01*
X14435091Y-8881802D01*
X14505802Y-8881802D01*
X15005802Y-7857802D02*
X15005802Y-7787091D01*
X14935091Y-7787091D01*
X14935091Y-7857802D01*
X15005802Y-7857802D01*
X15005802Y-8357802D02*
X15005802Y-8287091D01*
X14935091Y-8287091D01*
X14935091Y-8357802D01*
X15005802Y-8357802D01*
X15005802Y-8631802D02*
X15005802Y-8561091D01*
X14935091Y-8561091D01*
X14935091Y-8631802D01*
X15005802Y-8631802D01*
X15005802Y-9131802D02*
X15005802Y-9061091D01*
X14935091Y-9061091D01*
X14935091Y-9131802D01*
X15005802Y-9131802D01*
X15827802Y-8015802D02*
X15827802Y-7945091D01*
X15757091Y-7945091D01*
X15757091Y-8015802D01*
X15827802Y-8015802D01*
X15827802Y-8269802D02*
X15827802Y-8199091D01*
X15757091Y-8199091D01*
X15757091Y-8269802D01*
X15827802Y-8269802D01*
X15827802Y-8523802D02*
X15827802Y-8453091D01*
X15757091Y-8453091D01*
X15757091Y-8523802D01*
X15827802Y-8523802D01*
X15827802Y-8777802D02*
X15827802Y-8707091D01*
X15757091Y-8707091D01*
X15757091Y-8777802D01*
X15827802Y-8777802D01*
X15827802Y-9031802D02*
X15827802Y-8961091D01*
X15757091Y-8961091D01*
X15757091Y-9031802D01*
X15827802Y-9031802D01*
X16081802Y-8015802D02*
X16081802Y-7945091D01*
X16011091Y-7945091D01*
X16011091Y-8015802D01*
X16081802Y-8015802D01*
X16081802Y-8269802D02*
X16081802Y-8199091D01*
X16011091Y-8199091D01*
X16011091Y-8269802D01*
X16081802Y-8269802D01*
X16081802Y-8523802D02*
X16081802Y-8453091D01*
X16011091Y-8453091D01*
X16011091Y-8523802D01*
X16081802Y-8523802D01*
X16081802Y-8777802D02*
X16081802Y-8707091D01*
X16011091Y-8707091D01*
X16011091Y-8777802D01*
X16081802Y-8777802D01*
X16956802Y-8079302D02*
X16956802Y-8008591D01*
X16886091Y-8008591D01*
X16886091Y-8079302D01*
X16956802Y-8079302D01*
X16956802Y-8829302D02*
X16956802Y-8758591D01*
X16886091Y-8758591D01*
X16886091Y-8829302D01*
X16956802Y-8829302D01*
X17206802Y-8079302D02*
X17206802Y-8008591D01*
X17136091Y-8008591D01*
X17136091Y-8079302D01*
X17206802Y-8079302D01*
X17206802Y-8829302D02*
X17206802Y-8758591D01*
X17136091Y-8758591D01*
X17136091Y-8829302D01*
X17206802Y-8829302D01*
X17856802Y-8079302D02*
X17856802Y-8008591D01*
X17786091Y-8008591D01*
X17786091Y-8079302D01*
X17856802Y-8079302D01*
X17856802Y-8831802D02*
X17856802Y-8761091D01*
X17786091Y-8761091D01*
X17786091Y-8831802D01*
X17856802Y-8831802D01*
X18106802Y-8079302D02*
X18106802Y-8008591D01*
X18036091Y-8008591D01*
X18036091Y-8079302D01*
X18106802Y-8079302D01*
X18106802Y-8831802D02*
X18106802Y-8761091D01*
X18036091Y-8761091D01*
X18036091Y-8831802D01*
X18106802Y-8831802D01*
D12*
X10840000Y-8660000D02*
X11000000Y-8500000D01*
X10840000Y-8340000D01*
X10680000Y-8500000D01*
X10840000Y-8660000D01*
X19810000Y-8660000D02*
X19970000Y-8500000D01*
X19810000Y-8340000D01*
X19650000Y-8500000D01*
X19810000Y-8660000D01*
D11*
X10605777Y-10016484D02*
X10605777Y-9816484D01*
X10605777Y-9816484D02*
X10653396Y-9816484D01*
X10653396Y-9816484D02*
X10681967Y-9826008D01*
X10681967Y-9826008D02*
X10701015Y-9845055D01*
X10701015Y-9845055D02*
X10710539Y-9864103D01*
X10710539Y-9864103D02*
X10720063Y-9902198D01*
X10720063Y-9902198D02*
X10720063Y-9930770D01*
X10720063Y-9930770D02*
X10710539Y-9968865D01*
X10710539Y-9968865D02*
X10701015Y-9987912D01*
X10701015Y-9987912D02*
X10681967Y-10006960D01*
X10681967Y-10006960D02*
X10653396Y-10016484D01*
X10653396Y-10016484D02*
X10605777Y-10016484D01*
X10805777Y-10016484D02*
X10805777Y-9883150D01*
X10805777Y-9921246D02*
X10815301Y-9902198D01*
X10815301Y-9902198D02*
X10824825Y-9892674D01*
X10824825Y-9892674D02*
X10843872Y-9883150D01*
X10843872Y-9883150D02*
X10862920Y-9883150D01*
X10929586Y-10016484D02*
X10929586Y-9883150D01*
X10929586Y-9816484D02*
X10920063Y-9826008D01*
X10920063Y-9826008D02*
X10929586Y-9835531D01*
X10929586Y-9835531D02*
X10939110Y-9826008D01*
X10939110Y-9826008D02*
X10929586Y-9816484D01*
X10929586Y-9816484D02*
X10929586Y-9835531D01*
X11053396Y-10016484D02*
X11034348Y-10006960D01*
X11034348Y-10006960D02*
X11024825Y-9987912D01*
X11024825Y-9987912D02*
X11024825Y-9816484D01*
X11158158Y-10016484D02*
X11139110Y-10006960D01*
X11139110Y-10006960D02*
X11129586Y-9987912D01*
X11129586Y-9987912D02*
X11129586Y-9816484D01*
X11386729Y-10016484D02*
X11386729Y-9816484D01*
X11386729Y-9816484D02*
X11453396Y-9959341D01*
X11453396Y-9959341D02*
X11520063Y-9816484D01*
X11520063Y-9816484D02*
X11520063Y-10016484D01*
X11701015Y-10016484D02*
X11701015Y-9911722D01*
X11701015Y-9911722D02*
X11691491Y-9892674D01*
X11691491Y-9892674D02*
X11672444Y-9883150D01*
X11672444Y-9883150D02*
X11634348Y-9883150D01*
X11634348Y-9883150D02*
X11615301Y-9892674D01*
X11701015Y-10006960D02*
X11681967Y-10016484D01*
X11681967Y-10016484D02*
X11634348Y-10016484D01*
X11634348Y-10016484D02*
X11615301Y-10006960D01*
X11615301Y-10006960D02*
X11605777Y-9987912D01*
X11605777Y-9987912D02*
X11605777Y-9968865D01*
X11605777Y-9968865D02*
X11615301Y-9949817D01*
X11615301Y-9949817D02*
X11634348Y-9940293D01*
X11634348Y-9940293D02*
X11681967Y-9940293D01*
X11681967Y-9940293D02*
X11701015Y-9930770D01*
X11796253Y-9883150D02*
X11796253Y-10083150D01*
X11796253Y-9892674D02*
X11815301Y-9883150D01*
X11815301Y-9883150D02*
X11853396Y-9883150D01*
X11853396Y-9883150D02*
X11872444Y-9892674D01*
X11872444Y-9892674D02*
X11881967Y-9902198D01*
X11881967Y-9902198D02*
X11891491Y-9921246D01*
X11891491Y-9921246D02*
X11891491Y-9978389D01*
X11891491Y-9978389D02*
X11881967Y-9997436D01*
X11881967Y-9997436D02*
X11872444Y-10006960D01*
X11872444Y-10006960D02*
X11853396Y-10016484D01*
X11853396Y-10016484D02*
X11815301Y-10016484D01*
X11815301Y-10016484D02*
X11796253Y-10006960D01*
X11977205Y-9997436D02*
X11986729Y-10006960D01*
X11986729Y-10006960D02*
X11977205Y-10016484D01*
X11977205Y-10016484D02*
X11967682Y-10006960D01*
X11967682Y-10006960D02*
X11977205Y-9997436D01*
X11977205Y-9997436D02*
X11977205Y-10016484D01*
X11977205Y-9892674D02*
X11986729Y-9902198D01*
X11986729Y-9902198D02*
X11977205Y-9911722D01*
X11977205Y-9911722D02*
X11967682Y-9902198D01*
X11967682Y-9902198D02*
X11977205Y-9892674D01*
X11977205Y-9892674D02*
X11977205Y-9911722D01*
D10*
X10285000Y-10315000D02*
X10345000Y-10375000D01*
X10345000Y-10315000D02*
X10285000Y-10375000D01*
D11*
X10643872Y-10236484D02*
X10662920Y-10236484D01*
X10662920Y-10236484D02*
X10681967Y-10246008D01*
X10681967Y-10246008D02*
X10691491Y-10255531D01*
X10691491Y-10255531D02*
X10701015Y-10274579D01*
X10701015Y-10274579D02*
X10710539Y-10312674D01*
X10710539Y-10312674D02*
X10710539Y-10360293D01*
X10710539Y-10360293D02*
X10701015Y-10398389D01*
X10701015Y-10398389D02*
X10691491Y-10417436D01*
X10691491Y-10417436D02*
X10681967Y-10426960D01*
X10681967Y-10426960D02*
X10662920Y-10436484D01*
X10662920Y-10436484D02*
X10643872Y-10436484D01*
X10643872Y-10436484D02*
X10624825Y-10426960D01*
X10624825Y-10426960D02*
X10615301Y-10417436D01*
X10615301Y-10417436D02*
X10605777Y-10398389D01*
X10605777Y-10398389D02*
X10596253Y-10360293D01*
X10596253Y-10360293D02*
X10596253Y-10312674D01*
X10596253Y-10312674D02*
X10605777Y-10274579D01*
X10605777Y-10274579D02*
X10615301Y-10255531D01*
X10615301Y-10255531D02*
X10624825Y-10246008D01*
X10624825Y-10246008D02*
X10643872Y-10236484D01*
X10796253Y-10417436D02*
X10805777Y-10426960D01*
X10805777Y-10426960D02*
X10796253Y-10436484D01*
X10796253Y-10436484D02*
X10786729Y-10426960D01*
X10786729Y-10426960D02*
X10796253Y-10417436D01*
X10796253Y-10417436D02*
X10796253Y-10436484D01*
X10977206Y-10236484D02*
X10939110Y-10236484D01*
X10939110Y-10236484D02*
X10920063Y-10246008D01*
X10920063Y-10246008D02*
X10910539Y-10255531D01*
X10910539Y-10255531D02*
X10891491Y-10284103D01*
X10891491Y-10284103D02*
X10881967Y-10322198D01*
X10881967Y-10322198D02*
X10881967Y-10398389D01*
X10881967Y-10398389D02*
X10891491Y-10417436D01*
X10891491Y-10417436D02*
X10901015Y-10426960D01*
X10901015Y-10426960D02*
X10920063Y-10436484D01*
X10920063Y-10436484D02*
X10958158Y-10436484D01*
X10958158Y-10436484D02*
X10977206Y-10426960D01*
X10977206Y-10426960D02*
X10986729Y-10417436D01*
X10986729Y-10417436D02*
X10996253Y-10398389D01*
X10996253Y-10398389D02*
X10996253Y-10350770D01*
X10996253Y-10350770D02*
X10986729Y-10331722D01*
X10986729Y-10331722D02*
X10977206Y-10322198D01*
X10977206Y-10322198D02*
X10958158Y-10312674D01*
X10958158Y-10312674D02*
X10920063Y-10312674D01*
X10920063Y-10312674D02*
X10901015Y-10322198D01*
X10901015Y-10322198D02*
X10891491Y-10331722D01*
X10891491Y-10331722D02*
X10881967Y-10350770D01*
X11120063Y-10236484D02*
X11139110Y-10236484D01*
X11139110Y-10236484D02*
X11158158Y-10246008D01*
X11158158Y-10246008D02*
X11167682Y-10255531D01*
X11167682Y-10255531D02*
X11177206Y-10274579D01*
X11177206Y-10274579D02*
X11186729Y-10312674D01*
X11186729Y-10312674D02*
X11186729Y-10360293D01*
X11186729Y-10360293D02*
X11177206Y-10398389D01*
X11177206Y-10398389D02*
X11167682Y-10417436D01*
X11167682Y-10417436D02*
X11158158Y-10426960D01*
X11158158Y-10426960D02*
X11139110Y-10436484D01*
X11139110Y-10436484D02*
X11120063Y-10436484D01*
X11120063Y-10436484D02*
X11101015Y-10426960D01*
X11101015Y-10426960D02*
X11091491Y-10417436D01*
X11091491Y-10417436D02*
X11081967Y-10398389D01*
X11081967Y-10398389D02*
X11072444Y-10360293D01*
X11072444Y-10360293D02*
X11072444Y-10312674D01*
X11072444Y-10312674D02*
X11081967Y-10274579D01*
X11081967Y-10274579D02*
X11091491Y-10255531D01*
X11091491Y-10255531D02*
X11101015Y-10246008D01*
X11101015Y-10246008D02*
X11120063Y-10236484D01*
X11310539Y-10236484D02*
X11329586Y-10236484D01*
X11329586Y-10236484D02*
X11348634Y-10246008D01*
X11348634Y-10246008D02*
X11358158Y-10255531D01*
X11358158Y-10255531D02*
X11367682Y-10274579D01*
X11367682Y-10274579D02*
X11377205Y-10312674D01*
X11377205Y-10312674D02*
X11377205Y-10360293D01*
X11377205Y-10360293D02*
X11367682Y-10398389D01*
X11367682Y-10398389D02*
X11358158Y-10417436D01*
X11358158Y-10417436D02*
X11348634Y-10426960D01*
X11348634Y-10426960D02*
X11329586Y-10436484D01*
X11329586Y-10436484D02*
X11310539Y-10436484D01*
X11310539Y-10436484D02*
X11291491Y-10426960D01*
X11291491Y-10426960D02*
X11281967Y-10417436D01*
X11281967Y-10417436D02*
X11272444Y-10398389D01*
X11272444Y-10398389D02*
X11262920Y-10360293D01*
X11262920Y-10360293D02*
X11262920Y-10312674D01*
X11262920Y-10312674D02*
X11272444Y-10274579D01*
X11272444Y-10274579D02*
X11281967Y-10255531D01*
X11281967Y-10255531D02*
X11291491Y-10246008D01*
X11291491Y-10246008D02*
X11310539Y-10236484D01*
X11462920Y-10436484D02*
X11462920Y-10303150D01*
X11462920Y-10322198D02*
X11472444Y-10312674D01*
X11472444Y-10312674D02*
X11491491Y-10303150D01*
X11491491Y-10303150D02*
X11520063Y-10303150D01*
X11520063Y-10303150D02*
X11539110Y-10312674D01*
X11539110Y-10312674D02*
X11548634Y-10331722D01*
X11548634Y-10331722D02*
X11548634Y-10436484D01*
X11548634Y-10331722D02*
X11558158Y-10312674D01*
X11558158Y-10312674D02*
X11577205Y-10303150D01*
X11577205Y-10303150D02*
X11605777Y-10303150D01*
X11605777Y-10303150D02*
X11624825Y-10312674D01*
X11624825Y-10312674D02*
X11634348Y-10331722D01*
X11634348Y-10331722D02*
X11634348Y-10436484D01*
X11729586Y-10436484D02*
X11729586Y-10303150D01*
X11729586Y-10322198D02*
X11739110Y-10312674D01*
X11739110Y-10312674D02*
X11758158Y-10303150D01*
X11758158Y-10303150D02*
X11786729Y-10303150D01*
X11786729Y-10303150D02*
X11805777Y-10312674D01*
X11805777Y-10312674D02*
X11815301Y-10331722D01*
X11815301Y-10331722D02*
X11815301Y-10436484D01*
X11815301Y-10331722D02*
X11824825Y-10312674D01*
X11824825Y-10312674D02*
X11843872Y-10303150D01*
X11843872Y-10303150D02*
X11872444Y-10303150D01*
X11872444Y-10303150D02*
X11891491Y-10312674D01*
X11891491Y-10312674D02*
X11901015Y-10331722D01*
X11901015Y-10331722D02*
X11901015Y-10436484D01*
X12291491Y-10226960D02*
X12120063Y-10484103D01*
X12548634Y-10236484D02*
X12567682Y-10236484D01*
X12567682Y-10236484D02*
X12586729Y-10246008D01*
X12586729Y-10246008D02*
X12596253Y-10255531D01*
X12596253Y-10255531D02*
X12605777Y-10274579D01*
X12605777Y-10274579D02*
X12615301Y-10312674D01*
X12615301Y-10312674D02*
X12615301Y-10360293D01*
X12615301Y-10360293D02*
X12605777Y-10398389D01*
X12605777Y-10398389D02*
X12596253Y-10417436D01*
X12596253Y-10417436D02*
X12586729Y-10426960D01*
X12586729Y-10426960D02*
X12567682Y-10436484D01*
X12567682Y-10436484D02*
X12548634Y-10436484D01*
X12548634Y-10436484D02*
X12529587Y-10426960D01*
X12529587Y-10426960D02*
X12520063Y-10417436D01*
X12520063Y-10417436D02*
X12510539Y-10398389D01*
X12510539Y-10398389D02*
X12501015Y-10360293D01*
X12501015Y-10360293D02*
X12501015Y-10312674D01*
X12501015Y-10312674D02*
X12510539Y-10274579D01*
X12510539Y-10274579D02*
X12520063Y-10255531D01*
X12520063Y-10255531D02*
X12529587Y-10246008D01*
X12529587Y-10246008D02*
X12548634Y-10236484D01*
X12701015Y-10417436D02*
X12710539Y-10426960D01*
X12710539Y-10426960D02*
X12701015Y-10436484D01*
X12701015Y-10436484D02*
X12691491Y-10426960D01*
X12691491Y-10426960D02*
X12701015Y-10417436D01*
X12701015Y-10417436D02*
X12701015Y-10436484D01*
X12834348Y-10236484D02*
X12853396Y-10236484D01*
X12853396Y-10236484D02*
X12872444Y-10246008D01*
X12872444Y-10246008D02*
X12881968Y-10255531D01*
X12881968Y-10255531D02*
X12891491Y-10274579D01*
X12891491Y-10274579D02*
X12901015Y-10312674D01*
X12901015Y-10312674D02*
X12901015Y-10360293D01*
X12901015Y-10360293D02*
X12891491Y-10398389D01*
X12891491Y-10398389D02*
X12881968Y-10417436D01*
X12881968Y-10417436D02*
X12872444Y-10426960D01*
X12872444Y-10426960D02*
X12853396Y-10436484D01*
X12853396Y-10436484D02*
X12834348Y-10436484D01*
X12834348Y-10436484D02*
X12815301Y-10426960D01*
X12815301Y-10426960D02*
X12805777Y-10417436D01*
X12805777Y-10417436D02*
X12796253Y-10398389D01*
X12796253Y-10398389D02*
X12786729Y-10360293D01*
X12786729Y-10360293D02*
X12786729Y-10312674D01*
X12786729Y-10312674D02*
X12796253Y-10274579D01*
X12796253Y-10274579D02*
X12805777Y-10255531D01*
X12805777Y-10255531D02*
X12815301Y-10246008D01*
X12815301Y-10246008D02*
X12834348Y-10236484D01*
X12977206Y-10255531D02*
X12986729Y-10246008D01*
X12986729Y-10246008D02*
X13005777Y-10236484D01*
X13005777Y-10236484D02*
X13053396Y-10236484D01*
X13053396Y-10236484D02*
X13072444Y-10246008D01*
X13072444Y-10246008D02*
X13081968Y-10255531D01*
X13081968Y-10255531D02*
X13091491Y-10274579D01*
X13091491Y-10274579D02*
X13091491Y-10293627D01*
X13091491Y-10293627D02*
X13081968Y-10322198D01*
X13081968Y-10322198D02*
X12967682Y-10436484D01*
X12967682Y-10436484D02*
X13091491Y-10436484D01*
X13158158Y-10236484D02*
X13281968Y-10236484D01*
X13281968Y-10236484D02*
X13215301Y-10312674D01*
X13215301Y-10312674D02*
X13243872Y-10312674D01*
X13243872Y-10312674D02*
X13262920Y-10322198D01*
X13262920Y-10322198D02*
X13272444Y-10331722D01*
X13272444Y-10331722D02*
X13281968Y-10350770D01*
X13281968Y-10350770D02*
X13281968Y-10398389D01*
X13281968Y-10398389D02*
X13272444Y-10417436D01*
X13272444Y-10417436D02*
X13262920Y-10426960D01*
X13262920Y-10426960D02*
X13243872Y-10436484D01*
X13243872Y-10436484D02*
X13186729Y-10436484D01*
X13186729Y-10436484D02*
X13167682Y-10426960D01*
X13167682Y-10426960D02*
X13158158Y-10417436D01*
X13453396Y-10236484D02*
X13415301Y-10236484D01*
X13415301Y-10236484D02*
X13396253Y-10246008D01*
X13396253Y-10246008D02*
X13386729Y-10255531D01*
X13386729Y-10255531D02*
X13367682Y-10284103D01*
X13367682Y-10284103D02*
X13358158Y-10322198D01*
X13358158Y-10322198D02*
X13358158Y-10398389D01*
X13358158Y-10398389D02*
X13367682Y-10417436D01*
X13367682Y-10417436D02*
X13377206Y-10426960D01*
X13377206Y-10426960D02*
X13396253Y-10436484D01*
X13396253Y-10436484D02*
X13434349Y-10436484D01*
X13434349Y-10436484D02*
X13453396Y-10426960D01*
X13453396Y-10426960D02*
X13462920Y-10417436D01*
X13462920Y-10417436D02*
X13472444Y-10398389D01*
X13472444Y-10398389D02*
X13472444Y-10350770D01*
X13472444Y-10350770D02*
X13462920Y-10331722D01*
X13462920Y-10331722D02*
X13453396Y-10322198D01*
X13453396Y-10322198D02*
X13434349Y-10312674D01*
X13434349Y-10312674D02*
X13396253Y-10312674D01*
X13396253Y-10312674D02*
X13377206Y-10322198D01*
X13377206Y-10322198D02*
X13367682Y-10331722D01*
X13367682Y-10331722D02*
X13358158Y-10350770D01*
X13548634Y-10236484D02*
X13548634Y-10274579D01*
X13624825Y-10236484D02*
X13624825Y-10274579D01*
X13920063Y-10512674D02*
X13910539Y-10503150D01*
X13910539Y-10503150D02*
X13891491Y-10474579D01*
X13891491Y-10474579D02*
X13881968Y-10455531D01*
X13881968Y-10455531D02*
X13872444Y-10426960D01*
X13872444Y-10426960D02*
X13862920Y-10379341D01*
X13862920Y-10379341D02*
X13862920Y-10341246D01*
X13862920Y-10341246D02*
X13872444Y-10293627D01*
X13872444Y-10293627D02*
X13881968Y-10265055D01*
X13881968Y-10265055D02*
X13891491Y-10246008D01*
X13891491Y-10246008D02*
X13910539Y-10217436D01*
X13910539Y-10217436D02*
X13920063Y-10207912D01*
X14091491Y-10236484D02*
X13996253Y-10236484D01*
X13996253Y-10236484D02*
X13986730Y-10331722D01*
X13986730Y-10331722D02*
X13996253Y-10322198D01*
X13996253Y-10322198D02*
X14015301Y-10312674D01*
X14015301Y-10312674D02*
X14062920Y-10312674D01*
X14062920Y-10312674D02*
X14081968Y-10322198D01*
X14081968Y-10322198D02*
X14091491Y-10331722D01*
X14091491Y-10331722D02*
X14101015Y-10350770D01*
X14101015Y-10350770D02*
X14101015Y-10398389D01*
X14101015Y-10398389D02*
X14091491Y-10417436D01*
X14091491Y-10417436D02*
X14081968Y-10426960D01*
X14081968Y-10426960D02*
X14062920Y-10436484D01*
X14062920Y-10436484D02*
X14015301Y-10436484D01*
X14015301Y-10436484D02*
X13996253Y-10426960D01*
X13996253Y-10426960D02*
X13986730Y-10417436D01*
X14339111Y-10436484D02*
X14339111Y-10236484D01*
X14424825Y-10436484D02*
X14424825Y-10331722D01*
X14424825Y-10331722D02*
X14415301Y-10312674D01*
X14415301Y-10312674D02*
X14396253Y-10303150D01*
X14396253Y-10303150D02*
X14367682Y-10303150D01*
X14367682Y-10303150D02*
X14348634Y-10312674D01*
X14348634Y-10312674D02*
X14339111Y-10322198D01*
X14548634Y-10436484D02*
X14529587Y-10426960D01*
X14529587Y-10426960D02*
X14520063Y-10417436D01*
X14520063Y-10417436D02*
X14510539Y-10398389D01*
X14510539Y-10398389D02*
X14510539Y-10341246D01*
X14510539Y-10341246D02*
X14520063Y-10322198D01*
X14520063Y-10322198D02*
X14529587Y-10312674D01*
X14529587Y-10312674D02*
X14548634Y-10303150D01*
X14548634Y-10303150D02*
X14577206Y-10303150D01*
X14577206Y-10303150D02*
X14596253Y-10312674D01*
X14596253Y-10312674D02*
X14605777Y-10322198D01*
X14605777Y-10322198D02*
X14615301Y-10341246D01*
X14615301Y-10341246D02*
X14615301Y-10398389D01*
X14615301Y-10398389D02*
X14605777Y-10417436D01*
X14605777Y-10417436D02*
X14596253Y-10426960D01*
X14596253Y-10426960D02*
X14577206Y-10436484D01*
X14577206Y-10436484D02*
X14548634Y-10436484D01*
X14729587Y-10436484D02*
X14710539Y-10426960D01*
X14710539Y-10426960D02*
X14701015Y-10407912D01*
X14701015Y-10407912D02*
X14701015Y-10236484D01*
X14881968Y-10426960D02*
X14862920Y-10436484D01*
X14862920Y-10436484D02*
X14824825Y-10436484D01*
X14824825Y-10436484D02*
X14805777Y-10426960D01*
X14805777Y-10426960D02*
X14796253Y-10407912D01*
X14796253Y-10407912D02*
X14796253Y-10331722D01*
X14796253Y-10331722D02*
X14805777Y-10312674D01*
X14805777Y-10312674D02*
X14824825Y-10303150D01*
X14824825Y-10303150D02*
X14862920Y-10303150D01*
X14862920Y-10303150D02*
X14881968Y-10312674D01*
X14881968Y-10312674D02*
X14891492Y-10331722D01*
X14891492Y-10331722D02*
X14891492Y-10350770D01*
X14891492Y-10350770D02*
X14796253Y-10369817D01*
X14967682Y-10426960D02*
X14986730Y-10436484D01*
X14986730Y-10436484D02*
X15024825Y-10436484D01*
X15024825Y-10436484D02*
X15043873Y-10426960D01*
X15043873Y-10426960D02*
X15053396Y-10407912D01*
X15053396Y-10407912D02*
X15053396Y-10398389D01*
X15053396Y-10398389D02*
X15043873Y-10379341D01*
X15043873Y-10379341D02*
X15024825Y-10369817D01*
X15024825Y-10369817D02*
X14996253Y-10369817D01*
X14996253Y-10369817D02*
X14977206Y-10360293D01*
X14977206Y-10360293D02*
X14967682Y-10341246D01*
X14967682Y-10341246D02*
X14967682Y-10331722D01*
X14967682Y-10331722D02*
X14977206Y-10312674D01*
X14977206Y-10312674D02*
X14996253Y-10303150D01*
X14996253Y-10303150D02*
X15024825Y-10303150D01*
X15024825Y-10303150D02*
X15043873Y-10312674D01*
X15120063Y-10512674D02*
X15129587Y-10503150D01*
X15129587Y-10503150D02*
X15148634Y-10474579D01*
X15148634Y-10474579D02*
X15158158Y-10455531D01*
X15158158Y-10455531D02*
X15167682Y-10426960D01*
X15167682Y-10426960D02*
X15177206Y-10379341D01*
X15177206Y-10379341D02*
X15177206Y-10341246D01*
X15177206Y-10341246D02*
X15167682Y-10293627D01*
X15167682Y-10293627D02*
X15158158Y-10265055D01*
X15158158Y-10265055D02*
X15148634Y-10246008D01*
X15148634Y-10246008D02*
X15129587Y-10217436D01*
X15129587Y-10217436D02*
X15120063Y-10207912D01*
D10*
X10345000Y-10609000D02*
G75*
G02*
X10265000Y-10609000I-40000J0D01*
G01*
X10265000Y-10609000D02*
G75*
G02*
X10345000Y-10609000I40000J0D01*
G01*
D11*
X10643872Y-10500484D02*
X10662920Y-10500484D01*
X10662920Y-10500484D02*
X10681967Y-10510008D01*
X10681967Y-10510008D02*
X10691491Y-10519531D01*
X10691491Y-10519531D02*
X10701015Y-10538579D01*
X10701015Y-10538579D02*
X10710539Y-10576674D01*
X10710539Y-10576674D02*
X10710539Y-10624293D01*
X10710539Y-10624293D02*
X10701015Y-10662389D01*
X10701015Y-10662389D02*
X10691491Y-10681436D01*
X10691491Y-10681436D02*
X10681967Y-10690960D01*
X10681967Y-10690960D02*
X10662920Y-10700484D01*
X10662920Y-10700484D02*
X10643872Y-10700484D01*
X10643872Y-10700484D02*
X10624825Y-10690960D01*
X10624825Y-10690960D02*
X10615301Y-10681436D01*
X10615301Y-10681436D02*
X10605777Y-10662389D01*
X10605777Y-10662389D02*
X10596253Y-10624293D01*
X10596253Y-10624293D02*
X10596253Y-10576674D01*
X10596253Y-10576674D02*
X10605777Y-10538579D01*
X10605777Y-10538579D02*
X10615301Y-10519531D01*
X10615301Y-10519531D02*
X10624825Y-10510008D01*
X10624825Y-10510008D02*
X10643872Y-10500484D01*
X10796253Y-10681436D02*
X10805777Y-10690960D01*
X10805777Y-10690960D02*
X10796253Y-10700484D01*
X10796253Y-10700484D02*
X10786729Y-10690960D01*
X10786729Y-10690960D02*
X10796253Y-10681436D01*
X10796253Y-10681436D02*
X10796253Y-10700484D01*
X10920063Y-10586198D02*
X10901015Y-10576674D01*
X10901015Y-10576674D02*
X10891491Y-10567150D01*
X10891491Y-10567150D02*
X10881967Y-10548103D01*
X10881967Y-10548103D02*
X10881967Y-10538579D01*
X10881967Y-10538579D02*
X10891491Y-10519531D01*
X10891491Y-10519531D02*
X10901015Y-10510008D01*
X10901015Y-10510008D02*
X10920063Y-10500484D01*
X10920063Y-10500484D02*
X10958158Y-10500484D01*
X10958158Y-10500484D02*
X10977206Y-10510008D01*
X10977206Y-10510008D02*
X10986729Y-10519531D01*
X10986729Y-10519531D02*
X10996253Y-10538579D01*
X10996253Y-10538579D02*
X10996253Y-10548103D01*
X10996253Y-10548103D02*
X10986729Y-10567150D01*
X10986729Y-10567150D02*
X10977206Y-10576674D01*
X10977206Y-10576674D02*
X10958158Y-10586198D01*
X10958158Y-10586198D02*
X10920063Y-10586198D01*
X10920063Y-10586198D02*
X10901015Y-10595722D01*
X10901015Y-10595722D02*
X10891491Y-10605246D01*
X10891491Y-10605246D02*
X10881967Y-10624293D01*
X10881967Y-10624293D02*
X10881967Y-10662389D01*
X10881967Y-10662389D02*
X10891491Y-10681436D01*
X10891491Y-10681436D02*
X10901015Y-10690960D01*
X10901015Y-10690960D02*
X10920063Y-10700484D01*
X10920063Y-10700484D02*
X10958158Y-10700484D01*
X10958158Y-10700484D02*
X10977206Y-10690960D01*
X10977206Y-10690960D02*
X10986729Y-10681436D01*
X10986729Y-10681436D02*
X10996253Y-10662389D01*
X10996253Y-10662389D02*
X10996253Y-10624293D01*
X10996253Y-10624293D02*
X10986729Y-10605246D01*
X10986729Y-10605246D02*
X10977206Y-10595722D01*
X10977206Y-10595722D02*
X10958158Y-10586198D01*
X11120063Y-10500484D02*
X11139110Y-10500484D01*
X11139110Y-10500484D02*
X11158158Y-10510008D01*
X11158158Y-10510008D02*
X11167682Y-10519531D01*
X11167682Y-10519531D02*
X11177206Y-10538579D01*
X11177206Y-10538579D02*
X11186729Y-10576674D01*
X11186729Y-10576674D02*
X11186729Y-10624293D01*
X11186729Y-10624293D02*
X11177206Y-10662389D01*
X11177206Y-10662389D02*
X11167682Y-10681436D01*
X11167682Y-10681436D02*
X11158158Y-10690960D01*
X11158158Y-10690960D02*
X11139110Y-10700484D01*
X11139110Y-10700484D02*
X11120063Y-10700484D01*
X11120063Y-10700484D02*
X11101015Y-10690960D01*
X11101015Y-10690960D02*
X11091491Y-10681436D01*
X11091491Y-10681436D02*
X11081967Y-10662389D01*
X11081967Y-10662389D02*
X11072444Y-10624293D01*
X11072444Y-10624293D02*
X11072444Y-10576674D01*
X11072444Y-10576674D02*
X11081967Y-10538579D01*
X11081967Y-10538579D02*
X11091491Y-10519531D01*
X11091491Y-10519531D02*
X11101015Y-10510008D01*
X11101015Y-10510008D02*
X11120063Y-10500484D01*
X11310539Y-10500484D02*
X11329586Y-10500484D01*
X11329586Y-10500484D02*
X11348634Y-10510008D01*
X11348634Y-10510008D02*
X11358158Y-10519531D01*
X11358158Y-10519531D02*
X11367682Y-10538579D01*
X11367682Y-10538579D02*
X11377205Y-10576674D01*
X11377205Y-10576674D02*
X11377205Y-10624293D01*
X11377205Y-10624293D02*
X11367682Y-10662389D01*
X11367682Y-10662389D02*
X11358158Y-10681436D01*
X11358158Y-10681436D02*
X11348634Y-10690960D01*
X11348634Y-10690960D02*
X11329586Y-10700484D01*
X11329586Y-10700484D02*
X11310539Y-10700484D01*
X11310539Y-10700484D02*
X11291491Y-10690960D01*
X11291491Y-10690960D02*
X11281967Y-10681436D01*
X11281967Y-10681436D02*
X11272444Y-10662389D01*
X11272444Y-10662389D02*
X11262920Y-10624293D01*
X11262920Y-10624293D02*
X11262920Y-10576674D01*
X11262920Y-10576674D02*
X11272444Y-10538579D01*
X11272444Y-10538579D02*
X11281967Y-10519531D01*
X11281967Y-10519531D02*
X11291491Y-10510008D01*
X11291491Y-10510008D02*
X11310539Y-10500484D01*
X11462920Y-10700484D02*
X11462920Y-10567150D01*
X11462920Y-10586198D02*
X11472444Y-10576674D01*
X11472444Y-10576674D02*
X11491491Y-10567150D01*
X11491491Y-10567150D02*
X11520063Y-10567150D01*
X11520063Y-10567150D02*
X11539110Y-10576674D01*
X11539110Y-10576674D02*
X11548634Y-10595722D01*
X11548634Y-10595722D02*
X11548634Y-10700484D01*
X11548634Y-10595722D02*
X11558158Y-10576674D01*
X11558158Y-10576674D02*
X11577205Y-10567150D01*
X11577205Y-10567150D02*
X11605777Y-10567150D01*
X11605777Y-10567150D02*
X11624825Y-10576674D01*
X11624825Y-10576674D02*
X11634348Y-10595722D01*
X11634348Y-10595722D02*
X11634348Y-10700484D01*
X11729586Y-10700484D02*
X11729586Y-10567150D01*
X11729586Y-10586198D02*
X11739110Y-10576674D01*
X11739110Y-10576674D02*
X11758158Y-10567150D01*
X11758158Y-10567150D02*
X11786729Y-10567150D01*
X11786729Y-10567150D02*
X11805777Y-10576674D01*
X11805777Y-10576674D02*
X11815301Y-10595722D01*
X11815301Y-10595722D02*
X11815301Y-10700484D01*
X11815301Y-10595722D02*
X11824825Y-10576674D01*
X11824825Y-10576674D02*
X11843872Y-10567150D01*
X11843872Y-10567150D02*
X11872444Y-10567150D01*
X11872444Y-10567150D02*
X11891491Y-10576674D01*
X11891491Y-10576674D02*
X11901015Y-10595722D01*
X11901015Y-10595722D02*
X11901015Y-10700484D01*
X12291491Y-10490960D02*
X12120063Y-10748103D01*
X12548634Y-10500484D02*
X12567682Y-10500484D01*
X12567682Y-10500484D02*
X12586729Y-10510008D01*
X12586729Y-10510008D02*
X12596253Y-10519531D01*
X12596253Y-10519531D02*
X12605777Y-10538579D01*
X12605777Y-10538579D02*
X12615301Y-10576674D01*
X12615301Y-10576674D02*
X12615301Y-10624293D01*
X12615301Y-10624293D02*
X12605777Y-10662389D01*
X12605777Y-10662389D02*
X12596253Y-10681436D01*
X12596253Y-10681436D02*
X12586729Y-10690960D01*
X12586729Y-10690960D02*
X12567682Y-10700484D01*
X12567682Y-10700484D02*
X12548634Y-10700484D01*
X12548634Y-10700484D02*
X12529587Y-10690960D01*
X12529587Y-10690960D02*
X12520063Y-10681436D01*
X12520063Y-10681436D02*
X12510539Y-10662389D01*
X12510539Y-10662389D02*
X12501015Y-10624293D01*
X12501015Y-10624293D02*
X12501015Y-10576674D01*
X12501015Y-10576674D02*
X12510539Y-10538579D01*
X12510539Y-10538579D02*
X12520063Y-10519531D01*
X12520063Y-10519531D02*
X12529587Y-10510008D01*
X12529587Y-10510008D02*
X12548634Y-10500484D01*
X12701015Y-10681436D02*
X12710539Y-10690960D01*
X12710539Y-10690960D02*
X12701015Y-10700484D01*
X12701015Y-10700484D02*
X12691491Y-10690960D01*
X12691491Y-10690960D02*
X12701015Y-10681436D01*
X12701015Y-10681436D02*
X12701015Y-10700484D01*
X12834348Y-10500484D02*
X12853396Y-10500484D01*
X12853396Y-10500484D02*
X12872444Y-10510008D01*
X12872444Y-10510008D02*
X12881968Y-10519531D01*
X12881968Y-10519531D02*
X12891491Y-10538579D01*
X12891491Y-10538579D02*
X12901015Y-10576674D01*
X12901015Y-10576674D02*
X12901015Y-10624293D01*
X12901015Y-10624293D02*
X12891491Y-10662389D01*
X12891491Y-10662389D02*
X12881968Y-10681436D01*
X12881968Y-10681436D02*
X12872444Y-10690960D01*
X12872444Y-10690960D02*
X12853396Y-10700484D01*
X12853396Y-10700484D02*
X12834348Y-10700484D01*
X12834348Y-10700484D02*
X12815301Y-10690960D01*
X12815301Y-10690960D02*
X12805777Y-10681436D01*
X12805777Y-10681436D02*
X12796253Y-10662389D01*
X12796253Y-10662389D02*
X12786729Y-10624293D01*
X12786729Y-10624293D02*
X12786729Y-10576674D01*
X12786729Y-10576674D02*
X12796253Y-10538579D01*
X12796253Y-10538579D02*
X12805777Y-10519531D01*
X12805777Y-10519531D02*
X12815301Y-10510008D01*
X12815301Y-10510008D02*
X12834348Y-10500484D01*
X12967682Y-10500484D02*
X13091491Y-10500484D01*
X13091491Y-10500484D02*
X13024825Y-10576674D01*
X13024825Y-10576674D02*
X13053396Y-10576674D01*
X13053396Y-10576674D02*
X13072444Y-10586198D01*
X13072444Y-10586198D02*
X13081968Y-10595722D01*
X13081968Y-10595722D02*
X13091491Y-10614770D01*
X13091491Y-10614770D02*
X13091491Y-10662389D01*
X13091491Y-10662389D02*
X13081968Y-10681436D01*
X13081968Y-10681436D02*
X13072444Y-10690960D01*
X13072444Y-10690960D02*
X13053396Y-10700484D01*
X13053396Y-10700484D02*
X12996253Y-10700484D01*
X12996253Y-10700484D02*
X12977206Y-10690960D01*
X12977206Y-10690960D02*
X12967682Y-10681436D01*
X13281968Y-10700484D02*
X13167682Y-10700484D01*
X13224825Y-10700484D02*
X13224825Y-10500484D01*
X13224825Y-10500484D02*
X13205777Y-10529055D01*
X13205777Y-10529055D02*
X13186729Y-10548103D01*
X13186729Y-10548103D02*
X13167682Y-10557627D01*
X13462920Y-10500484D02*
X13367682Y-10500484D01*
X13367682Y-10500484D02*
X13358158Y-10595722D01*
X13358158Y-10595722D02*
X13367682Y-10586198D01*
X13367682Y-10586198D02*
X13386729Y-10576674D01*
X13386729Y-10576674D02*
X13434349Y-10576674D01*
X13434349Y-10576674D02*
X13453396Y-10586198D01*
X13453396Y-10586198D02*
X13462920Y-10595722D01*
X13462920Y-10595722D02*
X13472444Y-10614770D01*
X13472444Y-10614770D02*
X13472444Y-10662389D01*
X13472444Y-10662389D02*
X13462920Y-10681436D01*
X13462920Y-10681436D02*
X13453396Y-10690960D01*
X13453396Y-10690960D02*
X13434349Y-10700484D01*
X13434349Y-10700484D02*
X13386729Y-10700484D01*
X13386729Y-10700484D02*
X13367682Y-10690960D01*
X13367682Y-10690960D02*
X13358158Y-10681436D01*
X13548634Y-10500484D02*
X13548634Y-10538579D01*
X13624825Y-10500484D02*
X13624825Y-10538579D01*
X13920063Y-10776674D02*
X13910539Y-10767150D01*
X13910539Y-10767150D02*
X13891491Y-10738579D01*
X13891491Y-10738579D02*
X13881968Y-10719531D01*
X13881968Y-10719531D02*
X13872444Y-10690960D01*
X13872444Y-10690960D02*
X13862920Y-10643341D01*
X13862920Y-10643341D02*
X13862920Y-10605246D01*
X13862920Y-10605246D02*
X13872444Y-10557627D01*
X13872444Y-10557627D02*
X13881968Y-10529055D01*
X13881968Y-10529055D02*
X13891491Y-10510008D01*
X13891491Y-10510008D02*
X13910539Y-10481436D01*
X13910539Y-10481436D02*
X13920063Y-10471912D01*
X14081968Y-10567150D02*
X14081968Y-10700484D01*
X14034349Y-10490960D02*
X13986730Y-10633817D01*
X13986730Y-10633817D02*
X14110539Y-10633817D01*
X14339111Y-10700484D02*
X14339111Y-10500484D01*
X14424825Y-10700484D02*
X14424825Y-10595722D01*
X14424825Y-10595722D02*
X14415301Y-10576674D01*
X14415301Y-10576674D02*
X14396253Y-10567150D01*
X14396253Y-10567150D02*
X14367682Y-10567150D01*
X14367682Y-10567150D02*
X14348634Y-10576674D01*
X14348634Y-10576674D02*
X14339111Y-10586198D01*
X14548634Y-10700484D02*
X14529587Y-10690960D01*
X14529587Y-10690960D02*
X14520063Y-10681436D01*
X14520063Y-10681436D02*
X14510539Y-10662389D01*
X14510539Y-10662389D02*
X14510539Y-10605246D01*
X14510539Y-10605246D02*
X14520063Y-10586198D01*
X14520063Y-10586198D02*
X14529587Y-10576674D01*
X14529587Y-10576674D02*
X14548634Y-10567150D01*
X14548634Y-10567150D02*
X14577206Y-10567150D01*
X14577206Y-10567150D02*
X14596253Y-10576674D01*
X14596253Y-10576674D02*
X14605777Y-10586198D01*
X14605777Y-10586198D02*
X14615301Y-10605246D01*
X14615301Y-10605246D02*
X14615301Y-10662389D01*
X14615301Y-10662389D02*
X14605777Y-10681436D01*
X14605777Y-10681436D02*
X14596253Y-10690960D01*
X14596253Y-10690960D02*
X14577206Y-10700484D01*
X14577206Y-10700484D02*
X14548634Y-10700484D01*
X14729587Y-10700484D02*
X14710539Y-10690960D01*
X14710539Y-10690960D02*
X14701015Y-10671912D01*
X14701015Y-10671912D02*
X14701015Y-10500484D01*
X14881968Y-10690960D02*
X14862920Y-10700484D01*
X14862920Y-10700484D02*
X14824825Y-10700484D01*
X14824825Y-10700484D02*
X14805777Y-10690960D01*
X14805777Y-10690960D02*
X14796253Y-10671912D01*
X14796253Y-10671912D02*
X14796253Y-10595722D01*
X14796253Y-10595722D02*
X14805777Y-10576674D01*
X14805777Y-10576674D02*
X14824825Y-10567150D01*
X14824825Y-10567150D02*
X14862920Y-10567150D01*
X14862920Y-10567150D02*
X14881968Y-10576674D01*
X14881968Y-10576674D02*
X14891492Y-10595722D01*
X14891492Y-10595722D02*
X14891492Y-10614770D01*
X14891492Y-10614770D02*
X14796253Y-10633817D01*
X14967682Y-10690960D02*
X14986730Y-10700484D01*
X14986730Y-10700484D02*
X15024825Y-10700484D01*
X15024825Y-10700484D02*
X15043873Y-10690960D01*
X15043873Y-10690960D02*
X15053396Y-10671912D01*
X15053396Y-10671912D02*
X15053396Y-10662389D01*
X15053396Y-10662389D02*
X15043873Y-10643341D01*
X15043873Y-10643341D02*
X15024825Y-10633817D01*
X15024825Y-10633817D02*
X14996253Y-10633817D01*
X14996253Y-10633817D02*
X14977206Y-10624293D01*
X14977206Y-10624293D02*
X14967682Y-10605246D01*
X14967682Y-10605246D02*
X14967682Y-10595722D01*
X14967682Y-10595722D02*
X14977206Y-10576674D01*
X14977206Y-10576674D02*
X14996253Y-10567150D01*
X14996253Y-10567150D02*
X15024825Y-10567150D01*
X15024825Y-10567150D02*
X15043873Y-10576674D01*
X15120063Y-10776674D02*
X15129587Y-10767150D01*
X15129587Y-10767150D02*
X15148634Y-10738579D01*
X15148634Y-10738579D02*
X15158158Y-10719531D01*
X15158158Y-10719531D02*
X15167682Y-10690960D01*
X15167682Y-10690960D02*
X15177206Y-10643341D01*
X15177206Y-10643341D02*
X15177206Y-10605246D01*
X15177206Y-10605246D02*
X15167682Y-10557627D01*
X15167682Y-10557627D02*
X15158158Y-10529055D01*
X15158158Y-10529055D02*
X15148634Y-10510008D01*
X15148634Y-10510008D02*
X15129587Y-10481436D01*
X15129587Y-10481436D02*
X15120063Y-10471912D01*
D10*
X10297500Y-10825500D02*
X10297500Y-10920500D01*
X10250000Y-10873000D02*
X10345000Y-10873000D01*
D11*
X10643872Y-10764484D02*
X10662920Y-10764484D01*
X10662920Y-10764484D02*
X10681967Y-10774008D01*
X10681967Y-10774008D02*
X10691491Y-10783531D01*
X10691491Y-10783531D02*
X10701015Y-10802579D01*
X10701015Y-10802579D02*
X10710539Y-10840674D01*
X10710539Y-10840674D02*
X10710539Y-10888293D01*
X10710539Y-10888293D02*
X10701015Y-10926389D01*
X10701015Y-10926389D02*
X10691491Y-10945436D01*
X10691491Y-10945436D02*
X10681967Y-10954960D01*
X10681967Y-10954960D02*
X10662920Y-10964484D01*
X10662920Y-10964484D02*
X10643872Y-10964484D01*
X10643872Y-10964484D02*
X10624825Y-10954960D01*
X10624825Y-10954960D02*
X10615301Y-10945436D01*
X10615301Y-10945436D02*
X10605777Y-10926389D01*
X10605777Y-10926389D02*
X10596253Y-10888293D01*
X10596253Y-10888293D02*
X10596253Y-10840674D01*
X10596253Y-10840674D02*
X10605777Y-10802579D01*
X10605777Y-10802579D02*
X10615301Y-10783531D01*
X10615301Y-10783531D02*
X10624825Y-10774008D01*
X10624825Y-10774008D02*
X10643872Y-10764484D01*
X10796253Y-10945436D02*
X10805777Y-10954960D01*
X10805777Y-10954960D02*
X10796253Y-10964484D01*
X10796253Y-10964484D02*
X10786729Y-10954960D01*
X10786729Y-10954960D02*
X10796253Y-10945436D01*
X10796253Y-10945436D02*
X10796253Y-10964484D01*
X10901015Y-10964484D02*
X10939110Y-10964484D01*
X10939110Y-10964484D02*
X10958158Y-10954960D01*
X10958158Y-10954960D02*
X10967682Y-10945436D01*
X10967682Y-10945436D02*
X10986729Y-10916865D01*
X10986729Y-10916865D02*
X10996253Y-10878770D01*
X10996253Y-10878770D02*
X10996253Y-10802579D01*
X10996253Y-10802579D02*
X10986729Y-10783531D01*
X10986729Y-10783531D02*
X10977206Y-10774008D01*
X10977206Y-10774008D02*
X10958158Y-10764484D01*
X10958158Y-10764484D02*
X10920063Y-10764484D01*
X10920063Y-10764484D02*
X10901015Y-10774008D01*
X10901015Y-10774008D02*
X10891491Y-10783531D01*
X10891491Y-10783531D02*
X10881967Y-10802579D01*
X10881967Y-10802579D02*
X10881967Y-10850198D01*
X10881967Y-10850198D02*
X10891491Y-10869246D01*
X10891491Y-10869246D02*
X10901015Y-10878770D01*
X10901015Y-10878770D02*
X10920063Y-10888293D01*
X10920063Y-10888293D02*
X10958158Y-10888293D01*
X10958158Y-10888293D02*
X10977206Y-10878770D01*
X10977206Y-10878770D02*
X10986729Y-10869246D01*
X10986729Y-10869246D02*
X10996253Y-10850198D01*
X11177206Y-10764484D02*
X11081967Y-10764484D01*
X11081967Y-10764484D02*
X11072444Y-10859722D01*
X11072444Y-10859722D02*
X11081967Y-10850198D01*
X11081967Y-10850198D02*
X11101015Y-10840674D01*
X11101015Y-10840674D02*
X11148634Y-10840674D01*
X11148634Y-10840674D02*
X11167682Y-10850198D01*
X11167682Y-10850198D02*
X11177206Y-10859722D01*
X11177206Y-10859722D02*
X11186729Y-10878770D01*
X11186729Y-10878770D02*
X11186729Y-10926389D01*
X11186729Y-10926389D02*
X11177206Y-10945436D01*
X11177206Y-10945436D02*
X11167682Y-10954960D01*
X11167682Y-10954960D02*
X11148634Y-10964484D01*
X11148634Y-10964484D02*
X11101015Y-10964484D01*
X11101015Y-10964484D02*
X11081967Y-10954960D01*
X11081967Y-10954960D02*
X11072444Y-10945436D01*
X11310539Y-10764484D02*
X11329586Y-10764484D01*
X11329586Y-10764484D02*
X11348634Y-10774008D01*
X11348634Y-10774008D02*
X11358158Y-10783531D01*
X11358158Y-10783531D02*
X11367682Y-10802579D01*
X11367682Y-10802579D02*
X11377205Y-10840674D01*
X11377205Y-10840674D02*
X11377205Y-10888293D01*
X11377205Y-10888293D02*
X11367682Y-10926389D01*
X11367682Y-10926389D02*
X11358158Y-10945436D01*
X11358158Y-10945436D02*
X11348634Y-10954960D01*
X11348634Y-10954960D02*
X11329586Y-10964484D01*
X11329586Y-10964484D02*
X11310539Y-10964484D01*
X11310539Y-10964484D02*
X11291491Y-10954960D01*
X11291491Y-10954960D02*
X11281967Y-10945436D01*
X11281967Y-10945436D02*
X11272444Y-10926389D01*
X11272444Y-10926389D02*
X11262920Y-10888293D01*
X11262920Y-10888293D02*
X11262920Y-10840674D01*
X11262920Y-10840674D02*
X11272444Y-10802579D01*
X11272444Y-10802579D02*
X11281967Y-10783531D01*
X11281967Y-10783531D02*
X11291491Y-10774008D01*
X11291491Y-10774008D02*
X11310539Y-10764484D01*
X11462920Y-10964484D02*
X11462920Y-10831150D01*
X11462920Y-10850198D02*
X11472444Y-10840674D01*
X11472444Y-10840674D02*
X11491491Y-10831150D01*
X11491491Y-10831150D02*
X11520063Y-10831150D01*
X11520063Y-10831150D02*
X11539110Y-10840674D01*
X11539110Y-10840674D02*
X11548634Y-10859722D01*
X11548634Y-10859722D02*
X11548634Y-10964484D01*
X11548634Y-10859722D02*
X11558158Y-10840674D01*
X11558158Y-10840674D02*
X11577205Y-10831150D01*
X11577205Y-10831150D02*
X11605777Y-10831150D01*
X11605777Y-10831150D02*
X11624825Y-10840674D01*
X11624825Y-10840674D02*
X11634348Y-10859722D01*
X11634348Y-10859722D02*
X11634348Y-10964484D01*
X11729586Y-10964484D02*
X11729586Y-10831150D01*
X11729586Y-10850198D02*
X11739110Y-10840674D01*
X11739110Y-10840674D02*
X11758158Y-10831150D01*
X11758158Y-10831150D02*
X11786729Y-10831150D01*
X11786729Y-10831150D02*
X11805777Y-10840674D01*
X11805777Y-10840674D02*
X11815301Y-10859722D01*
X11815301Y-10859722D02*
X11815301Y-10964484D01*
X11815301Y-10859722D02*
X11824825Y-10840674D01*
X11824825Y-10840674D02*
X11843872Y-10831150D01*
X11843872Y-10831150D02*
X11872444Y-10831150D01*
X11872444Y-10831150D02*
X11891491Y-10840674D01*
X11891491Y-10840674D02*
X11901015Y-10859722D01*
X11901015Y-10859722D02*
X11901015Y-10964484D01*
X12291491Y-10754960D02*
X12120063Y-11012103D01*
X12548634Y-10764484D02*
X12567682Y-10764484D01*
X12567682Y-10764484D02*
X12586729Y-10774008D01*
X12586729Y-10774008D02*
X12596253Y-10783531D01*
X12596253Y-10783531D02*
X12605777Y-10802579D01*
X12605777Y-10802579D02*
X12615301Y-10840674D01*
X12615301Y-10840674D02*
X12615301Y-10888293D01*
X12615301Y-10888293D02*
X12605777Y-10926389D01*
X12605777Y-10926389D02*
X12596253Y-10945436D01*
X12596253Y-10945436D02*
X12586729Y-10954960D01*
X12586729Y-10954960D02*
X12567682Y-10964484D01*
X12567682Y-10964484D02*
X12548634Y-10964484D01*
X12548634Y-10964484D02*
X12529587Y-10954960D01*
X12529587Y-10954960D02*
X12520063Y-10945436D01*
X12520063Y-10945436D02*
X12510539Y-10926389D01*
X12510539Y-10926389D02*
X12501015Y-10888293D01*
X12501015Y-10888293D02*
X12501015Y-10840674D01*
X12501015Y-10840674D02*
X12510539Y-10802579D01*
X12510539Y-10802579D02*
X12520063Y-10783531D01*
X12520063Y-10783531D02*
X12529587Y-10774008D01*
X12529587Y-10774008D02*
X12548634Y-10764484D01*
X12701015Y-10945436D02*
X12710539Y-10954960D01*
X12710539Y-10954960D02*
X12701015Y-10964484D01*
X12701015Y-10964484D02*
X12691491Y-10954960D01*
X12691491Y-10954960D02*
X12701015Y-10945436D01*
X12701015Y-10945436D02*
X12701015Y-10964484D01*
X12834348Y-10764484D02*
X12853396Y-10764484D01*
X12853396Y-10764484D02*
X12872444Y-10774008D01*
X12872444Y-10774008D02*
X12881968Y-10783531D01*
X12881968Y-10783531D02*
X12891491Y-10802579D01*
X12891491Y-10802579D02*
X12901015Y-10840674D01*
X12901015Y-10840674D02*
X12901015Y-10888293D01*
X12901015Y-10888293D02*
X12891491Y-10926389D01*
X12891491Y-10926389D02*
X12881968Y-10945436D01*
X12881968Y-10945436D02*
X12872444Y-10954960D01*
X12872444Y-10954960D02*
X12853396Y-10964484D01*
X12853396Y-10964484D02*
X12834348Y-10964484D01*
X12834348Y-10964484D02*
X12815301Y-10954960D01*
X12815301Y-10954960D02*
X12805777Y-10945436D01*
X12805777Y-10945436D02*
X12796253Y-10926389D01*
X12796253Y-10926389D02*
X12786729Y-10888293D01*
X12786729Y-10888293D02*
X12786729Y-10840674D01*
X12786729Y-10840674D02*
X12796253Y-10802579D01*
X12796253Y-10802579D02*
X12805777Y-10783531D01*
X12805777Y-10783531D02*
X12815301Y-10774008D01*
X12815301Y-10774008D02*
X12834348Y-10764484D01*
X12967682Y-10764484D02*
X13091491Y-10764484D01*
X13091491Y-10764484D02*
X13024825Y-10840674D01*
X13024825Y-10840674D02*
X13053396Y-10840674D01*
X13053396Y-10840674D02*
X13072444Y-10850198D01*
X13072444Y-10850198D02*
X13081968Y-10859722D01*
X13081968Y-10859722D02*
X13091491Y-10878770D01*
X13091491Y-10878770D02*
X13091491Y-10926389D01*
X13091491Y-10926389D02*
X13081968Y-10945436D01*
X13081968Y-10945436D02*
X13072444Y-10954960D01*
X13072444Y-10954960D02*
X13053396Y-10964484D01*
X13053396Y-10964484D02*
X12996253Y-10964484D01*
X12996253Y-10964484D02*
X12977206Y-10954960D01*
X12977206Y-10954960D02*
X12967682Y-10945436D01*
X13158158Y-10764484D02*
X13291491Y-10764484D01*
X13291491Y-10764484D02*
X13205777Y-10964484D01*
X13453396Y-10831150D02*
X13453396Y-10964484D01*
X13405777Y-10754960D02*
X13358158Y-10897817D01*
X13358158Y-10897817D02*
X13481968Y-10897817D01*
X13548634Y-10764484D02*
X13548634Y-10802579D01*
X13624825Y-10764484D02*
X13624825Y-10802579D01*
X13920063Y-11040674D02*
X13910539Y-11031150D01*
X13910539Y-11031150D02*
X13891491Y-11002579D01*
X13891491Y-11002579D02*
X13881968Y-10983531D01*
X13881968Y-10983531D02*
X13872444Y-10954960D01*
X13872444Y-10954960D02*
X13862920Y-10907341D01*
X13862920Y-10907341D02*
X13862920Y-10869246D01*
X13862920Y-10869246D02*
X13872444Y-10821627D01*
X13872444Y-10821627D02*
X13881968Y-10793055D01*
X13881968Y-10793055D02*
X13891491Y-10774008D01*
X13891491Y-10774008D02*
X13910539Y-10745436D01*
X13910539Y-10745436D02*
X13920063Y-10735912D01*
X14081968Y-10764484D02*
X14043872Y-10764484D01*
X14043872Y-10764484D02*
X14024825Y-10774008D01*
X14024825Y-10774008D02*
X14015301Y-10783531D01*
X14015301Y-10783531D02*
X13996253Y-10812103D01*
X13996253Y-10812103D02*
X13986730Y-10850198D01*
X13986730Y-10850198D02*
X13986730Y-10926389D01*
X13986730Y-10926389D02*
X13996253Y-10945436D01*
X13996253Y-10945436D02*
X14005777Y-10954960D01*
X14005777Y-10954960D02*
X14024825Y-10964484D01*
X14024825Y-10964484D02*
X14062920Y-10964484D01*
X14062920Y-10964484D02*
X14081968Y-10954960D01*
X14081968Y-10954960D02*
X14091491Y-10945436D01*
X14091491Y-10945436D02*
X14101015Y-10926389D01*
X14101015Y-10926389D02*
X14101015Y-10878770D01*
X14101015Y-10878770D02*
X14091491Y-10859722D01*
X14091491Y-10859722D02*
X14081968Y-10850198D01*
X14081968Y-10850198D02*
X14062920Y-10840674D01*
X14062920Y-10840674D02*
X14024825Y-10840674D01*
X14024825Y-10840674D02*
X14005777Y-10850198D01*
X14005777Y-10850198D02*
X13996253Y-10859722D01*
X13996253Y-10859722D02*
X13986730Y-10878770D01*
X14339111Y-10964484D02*
X14339111Y-10764484D01*
X14424825Y-10964484D02*
X14424825Y-10859722D01*
X14424825Y-10859722D02*
X14415301Y-10840674D01*
X14415301Y-10840674D02*
X14396253Y-10831150D01*
X14396253Y-10831150D02*
X14367682Y-10831150D01*
X14367682Y-10831150D02*
X14348634Y-10840674D01*
X14348634Y-10840674D02*
X14339111Y-10850198D01*
X14548634Y-10964484D02*
X14529587Y-10954960D01*
X14529587Y-10954960D02*
X14520063Y-10945436D01*
X14520063Y-10945436D02*
X14510539Y-10926389D01*
X14510539Y-10926389D02*
X14510539Y-10869246D01*
X14510539Y-10869246D02*
X14520063Y-10850198D01*
X14520063Y-10850198D02*
X14529587Y-10840674D01*
X14529587Y-10840674D02*
X14548634Y-10831150D01*
X14548634Y-10831150D02*
X14577206Y-10831150D01*
X14577206Y-10831150D02*
X14596253Y-10840674D01*
X14596253Y-10840674D02*
X14605777Y-10850198D01*
X14605777Y-10850198D02*
X14615301Y-10869246D01*
X14615301Y-10869246D02*
X14615301Y-10926389D01*
X14615301Y-10926389D02*
X14605777Y-10945436D01*
X14605777Y-10945436D02*
X14596253Y-10954960D01*
X14596253Y-10954960D02*
X14577206Y-10964484D01*
X14577206Y-10964484D02*
X14548634Y-10964484D01*
X14729587Y-10964484D02*
X14710539Y-10954960D01*
X14710539Y-10954960D02*
X14701015Y-10935912D01*
X14701015Y-10935912D02*
X14701015Y-10764484D01*
X14881968Y-10954960D02*
X14862920Y-10964484D01*
X14862920Y-10964484D02*
X14824825Y-10964484D01*
X14824825Y-10964484D02*
X14805777Y-10954960D01*
X14805777Y-10954960D02*
X14796253Y-10935912D01*
X14796253Y-10935912D02*
X14796253Y-10859722D01*
X14796253Y-10859722D02*
X14805777Y-10840674D01*
X14805777Y-10840674D02*
X14824825Y-10831150D01*
X14824825Y-10831150D02*
X14862920Y-10831150D01*
X14862920Y-10831150D02*
X14881968Y-10840674D01*
X14881968Y-10840674D02*
X14891492Y-10859722D01*
X14891492Y-10859722D02*
X14891492Y-10878770D01*
X14891492Y-10878770D02*
X14796253Y-10897817D01*
X14967682Y-10954960D02*
X14986730Y-10964484D01*
X14986730Y-10964484D02*
X15024825Y-10964484D01*
X15024825Y-10964484D02*
X15043873Y-10954960D01*
X15043873Y-10954960D02*
X15053396Y-10935912D01*
X15053396Y-10935912D02*
X15053396Y-10926389D01*
X15053396Y-10926389D02*
X15043873Y-10907341D01*
X15043873Y-10907341D02*
X15024825Y-10897817D01*
X15024825Y-10897817D02*
X14996253Y-10897817D01*
X14996253Y-10897817D02*
X14977206Y-10888293D01*
X14977206Y-10888293D02*
X14967682Y-10869246D01*
X14967682Y-10869246D02*
X14967682Y-10859722D01*
X14967682Y-10859722D02*
X14977206Y-10840674D01*
X14977206Y-10840674D02*
X14996253Y-10831150D01*
X14996253Y-10831150D02*
X15024825Y-10831150D01*
X15024825Y-10831150D02*
X15043873Y-10840674D01*
X15120063Y-11040674D02*
X15129587Y-11031150D01*
X15129587Y-11031150D02*
X15148634Y-11002579D01*
X15148634Y-11002579D02*
X15158158Y-10983531D01*
X15158158Y-10983531D02*
X15167682Y-10954960D01*
X15167682Y-10954960D02*
X15177206Y-10907341D01*
X15177206Y-10907341D02*
X15177206Y-10869246D01*
X15177206Y-10869246D02*
X15167682Y-10821627D01*
X15167682Y-10821627D02*
X15158158Y-10793055D01*
X15158158Y-10793055D02*
X15148634Y-10774008D01*
X15148634Y-10774008D02*
X15129587Y-10745436D01*
X15129587Y-10745436D02*
X15120063Y-10735912D01*
D10*
X10330356Y-11172356D02*
X10330356Y-11101644D01*
X10259644Y-11101644D01*
X10259644Y-11172356D01*
X10330356Y-11172356D01*
D11*
X10710539Y-11228484D02*
X10596253Y-11228484D01*
X10653396Y-11228484D02*
X10653396Y-11028484D01*
X10653396Y-11028484D02*
X10634348Y-11057055D01*
X10634348Y-11057055D02*
X10615301Y-11076103D01*
X10615301Y-11076103D02*
X10596253Y-11085627D01*
X10796253Y-11209436D02*
X10805777Y-11218960D01*
X10805777Y-11218960D02*
X10796253Y-11228484D01*
X10796253Y-11228484D02*
X10786729Y-11218960D01*
X10786729Y-11218960D02*
X10796253Y-11209436D01*
X10796253Y-11209436D02*
X10796253Y-11228484D01*
X10929586Y-11028484D02*
X10948634Y-11028484D01*
X10948634Y-11028484D02*
X10967682Y-11038008D01*
X10967682Y-11038008D02*
X10977206Y-11047531D01*
X10977206Y-11047531D02*
X10986729Y-11066579D01*
X10986729Y-11066579D02*
X10996253Y-11104674D01*
X10996253Y-11104674D02*
X10996253Y-11152293D01*
X10996253Y-11152293D02*
X10986729Y-11190388D01*
X10986729Y-11190388D02*
X10977206Y-11209436D01*
X10977206Y-11209436D02*
X10967682Y-11218960D01*
X10967682Y-11218960D02*
X10948634Y-11228484D01*
X10948634Y-11228484D02*
X10929586Y-11228484D01*
X10929586Y-11228484D02*
X10910539Y-11218960D01*
X10910539Y-11218960D02*
X10901015Y-11209436D01*
X10901015Y-11209436D02*
X10891491Y-11190388D01*
X10891491Y-11190388D02*
X10881967Y-11152293D01*
X10881967Y-11152293D02*
X10881967Y-11104674D01*
X10881967Y-11104674D02*
X10891491Y-11066579D01*
X10891491Y-11066579D02*
X10901015Y-11047531D01*
X10901015Y-11047531D02*
X10910539Y-11038008D01*
X10910539Y-11038008D02*
X10929586Y-11028484D01*
X11120063Y-11028484D02*
X11139110Y-11028484D01*
X11139110Y-11028484D02*
X11158158Y-11038008D01*
X11158158Y-11038008D02*
X11167682Y-11047531D01*
X11167682Y-11047531D02*
X11177206Y-11066579D01*
X11177206Y-11066579D02*
X11186729Y-11104674D01*
X11186729Y-11104674D02*
X11186729Y-11152293D01*
X11186729Y-11152293D02*
X11177206Y-11190388D01*
X11177206Y-11190388D02*
X11167682Y-11209436D01*
X11167682Y-11209436D02*
X11158158Y-11218960D01*
X11158158Y-11218960D02*
X11139110Y-11228484D01*
X11139110Y-11228484D02*
X11120063Y-11228484D01*
X11120063Y-11228484D02*
X11101015Y-11218960D01*
X11101015Y-11218960D02*
X11091491Y-11209436D01*
X11091491Y-11209436D02*
X11081967Y-11190388D01*
X11081967Y-11190388D02*
X11072444Y-11152293D01*
X11072444Y-11152293D02*
X11072444Y-11104674D01*
X11072444Y-11104674D02*
X11081967Y-11066579D01*
X11081967Y-11066579D02*
X11091491Y-11047531D01*
X11091491Y-11047531D02*
X11101015Y-11038008D01*
X11101015Y-11038008D02*
X11120063Y-11028484D01*
X11310539Y-11028484D02*
X11329586Y-11028484D01*
X11329586Y-11028484D02*
X11348634Y-11038008D01*
X11348634Y-11038008D02*
X11358158Y-11047531D01*
X11358158Y-11047531D02*
X11367682Y-11066579D01*
X11367682Y-11066579D02*
X11377205Y-11104674D01*
X11377205Y-11104674D02*
X11377205Y-11152293D01*
X11377205Y-11152293D02*
X11367682Y-11190388D01*
X11367682Y-11190388D02*
X11358158Y-11209436D01*
X11358158Y-11209436D02*
X11348634Y-11218960D01*
X11348634Y-11218960D02*
X11329586Y-11228484D01*
X11329586Y-11228484D02*
X11310539Y-11228484D01*
X11310539Y-11228484D02*
X11291491Y-11218960D01*
X11291491Y-11218960D02*
X11281967Y-11209436D01*
X11281967Y-11209436D02*
X11272444Y-11190388D01*
X11272444Y-11190388D02*
X11262920Y-11152293D01*
X11262920Y-11152293D02*
X11262920Y-11104674D01*
X11262920Y-11104674D02*
X11272444Y-11066579D01*
X11272444Y-11066579D02*
X11281967Y-11047531D01*
X11281967Y-11047531D02*
X11291491Y-11038008D01*
X11291491Y-11038008D02*
X11310539Y-11028484D01*
X11462920Y-11228484D02*
X11462920Y-11095150D01*
X11462920Y-11114198D02*
X11472444Y-11104674D01*
X11472444Y-11104674D02*
X11491491Y-11095150D01*
X11491491Y-11095150D02*
X11520063Y-11095150D01*
X11520063Y-11095150D02*
X11539110Y-11104674D01*
X11539110Y-11104674D02*
X11548634Y-11123722D01*
X11548634Y-11123722D02*
X11548634Y-11228484D01*
X11548634Y-11123722D02*
X11558158Y-11104674D01*
X11558158Y-11104674D02*
X11577205Y-11095150D01*
X11577205Y-11095150D02*
X11605777Y-11095150D01*
X11605777Y-11095150D02*
X11624825Y-11104674D01*
X11624825Y-11104674D02*
X11634348Y-11123722D01*
X11634348Y-11123722D02*
X11634348Y-11228484D01*
X11729586Y-11228484D02*
X11729586Y-11095150D01*
X11729586Y-11114198D02*
X11739110Y-11104674D01*
X11739110Y-11104674D02*
X11758158Y-11095150D01*
X11758158Y-11095150D02*
X11786729Y-11095150D01*
X11786729Y-11095150D02*
X11805777Y-11104674D01*
X11805777Y-11104674D02*
X11815301Y-11123722D01*
X11815301Y-11123722D02*
X11815301Y-11228484D01*
X11815301Y-11123722D02*
X11824825Y-11104674D01*
X11824825Y-11104674D02*
X11843872Y-11095150D01*
X11843872Y-11095150D02*
X11872444Y-11095150D01*
X11872444Y-11095150D02*
X11891491Y-11104674D01*
X11891491Y-11104674D02*
X11901015Y-11123722D01*
X11901015Y-11123722D02*
X11901015Y-11228484D01*
X12291491Y-11018960D02*
X12120063Y-11276103D01*
X12548634Y-11028484D02*
X12567682Y-11028484D01*
X12567682Y-11028484D02*
X12586729Y-11038008D01*
X12586729Y-11038008D02*
X12596253Y-11047531D01*
X12596253Y-11047531D02*
X12605777Y-11066579D01*
X12605777Y-11066579D02*
X12615301Y-11104674D01*
X12615301Y-11104674D02*
X12615301Y-11152293D01*
X12615301Y-11152293D02*
X12605777Y-11190388D01*
X12605777Y-11190388D02*
X12596253Y-11209436D01*
X12596253Y-11209436D02*
X12586729Y-11218960D01*
X12586729Y-11218960D02*
X12567682Y-11228484D01*
X12567682Y-11228484D02*
X12548634Y-11228484D01*
X12548634Y-11228484D02*
X12529587Y-11218960D01*
X12529587Y-11218960D02*
X12520063Y-11209436D01*
X12520063Y-11209436D02*
X12510539Y-11190388D01*
X12510539Y-11190388D02*
X12501015Y-11152293D01*
X12501015Y-11152293D02*
X12501015Y-11104674D01*
X12501015Y-11104674D02*
X12510539Y-11066579D01*
X12510539Y-11066579D02*
X12520063Y-11047531D01*
X12520063Y-11047531D02*
X12529587Y-11038008D01*
X12529587Y-11038008D02*
X12548634Y-11028484D01*
X12701015Y-11209436D02*
X12710539Y-11218960D01*
X12710539Y-11218960D02*
X12701015Y-11228484D01*
X12701015Y-11228484D02*
X12691491Y-11218960D01*
X12691491Y-11218960D02*
X12701015Y-11209436D01*
X12701015Y-11209436D02*
X12701015Y-11228484D01*
X12834348Y-11028484D02*
X12853396Y-11028484D01*
X12853396Y-11028484D02*
X12872444Y-11038008D01*
X12872444Y-11038008D02*
X12881968Y-11047531D01*
X12881968Y-11047531D02*
X12891491Y-11066579D01*
X12891491Y-11066579D02*
X12901015Y-11104674D01*
X12901015Y-11104674D02*
X12901015Y-11152293D01*
X12901015Y-11152293D02*
X12891491Y-11190388D01*
X12891491Y-11190388D02*
X12881968Y-11209436D01*
X12881968Y-11209436D02*
X12872444Y-11218960D01*
X12872444Y-11218960D02*
X12853396Y-11228484D01*
X12853396Y-11228484D02*
X12834348Y-11228484D01*
X12834348Y-11228484D02*
X12815301Y-11218960D01*
X12815301Y-11218960D02*
X12805777Y-11209436D01*
X12805777Y-11209436D02*
X12796253Y-11190388D01*
X12796253Y-11190388D02*
X12786729Y-11152293D01*
X12786729Y-11152293D02*
X12786729Y-11104674D01*
X12786729Y-11104674D02*
X12796253Y-11066579D01*
X12796253Y-11066579D02*
X12805777Y-11047531D01*
X12805777Y-11047531D02*
X12815301Y-11038008D01*
X12815301Y-11038008D02*
X12834348Y-11028484D01*
X12967682Y-11028484D02*
X13091491Y-11028484D01*
X13091491Y-11028484D02*
X13024825Y-11104674D01*
X13024825Y-11104674D02*
X13053396Y-11104674D01*
X13053396Y-11104674D02*
X13072444Y-11114198D01*
X13072444Y-11114198D02*
X13081968Y-11123722D01*
X13081968Y-11123722D02*
X13091491Y-11142770D01*
X13091491Y-11142770D02*
X13091491Y-11190388D01*
X13091491Y-11190388D02*
X13081968Y-11209436D01*
X13081968Y-11209436D02*
X13072444Y-11218960D01*
X13072444Y-11218960D02*
X13053396Y-11228484D01*
X13053396Y-11228484D02*
X12996253Y-11228484D01*
X12996253Y-11228484D02*
X12977206Y-11218960D01*
X12977206Y-11218960D02*
X12967682Y-11209436D01*
X13186729Y-11228484D02*
X13224825Y-11228484D01*
X13224825Y-11228484D02*
X13243872Y-11218960D01*
X13243872Y-11218960D02*
X13253396Y-11209436D01*
X13253396Y-11209436D02*
X13272444Y-11180865D01*
X13272444Y-11180865D02*
X13281968Y-11142770D01*
X13281968Y-11142770D02*
X13281968Y-11066579D01*
X13281968Y-11066579D02*
X13272444Y-11047531D01*
X13272444Y-11047531D02*
X13262920Y-11038008D01*
X13262920Y-11038008D02*
X13243872Y-11028484D01*
X13243872Y-11028484D02*
X13205777Y-11028484D01*
X13205777Y-11028484D02*
X13186729Y-11038008D01*
X13186729Y-11038008D02*
X13177206Y-11047531D01*
X13177206Y-11047531D02*
X13167682Y-11066579D01*
X13167682Y-11066579D02*
X13167682Y-11114198D01*
X13167682Y-11114198D02*
X13177206Y-11133246D01*
X13177206Y-11133246D02*
X13186729Y-11142770D01*
X13186729Y-11142770D02*
X13205777Y-11152293D01*
X13205777Y-11152293D02*
X13243872Y-11152293D01*
X13243872Y-11152293D02*
X13262920Y-11142770D01*
X13262920Y-11142770D02*
X13272444Y-11133246D01*
X13272444Y-11133246D02*
X13281968Y-11114198D01*
X13453396Y-11095150D02*
X13453396Y-11228484D01*
X13405777Y-11018960D02*
X13358158Y-11161817D01*
X13358158Y-11161817D02*
X13481968Y-11161817D01*
X13548634Y-11028484D02*
X13548634Y-11066579D01*
X13624825Y-11028484D02*
X13624825Y-11066579D01*
X13920063Y-11304674D02*
X13910539Y-11295150D01*
X13910539Y-11295150D02*
X13891491Y-11266579D01*
X13891491Y-11266579D02*
X13881968Y-11247531D01*
X13881968Y-11247531D02*
X13872444Y-11218960D01*
X13872444Y-11218960D02*
X13862920Y-11171341D01*
X13862920Y-11171341D02*
X13862920Y-11133246D01*
X13862920Y-11133246D02*
X13872444Y-11085627D01*
X13872444Y-11085627D02*
X13881968Y-11057055D01*
X13881968Y-11057055D02*
X13891491Y-11038008D01*
X13891491Y-11038008D02*
X13910539Y-11009436D01*
X13910539Y-11009436D02*
X13920063Y-10999912D01*
X13986730Y-11047531D02*
X13996253Y-11038008D01*
X13996253Y-11038008D02*
X14015301Y-11028484D01*
X14015301Y-11028484D02*
X14062920Y-11028484D01*
X14062920Y-11028484D02*
X14081968Y-11038008D01*
X14081968Y-11038008D02*
X14091491Y-11047531D01*
X14091491Y-11047531D02*
X14101015Y-11066579D01*
X14101015Y-11066579D02*
X14101015Y-11085627D01*
X14101015Y-11085627D02*
X14091491Y-11114198D01*
X14091491Y-11114198D02*
X13977206Y-11228484D01*
X13977206Y-11228484D02*
X14101015Y-11228484D01*
X14167682Y-11028484D02*
X14291491Y-11028484D01*
X14291491Y-11028484D02*
X14224825Y-11104674D01*
X14224825Y-11104674D02*
X14253396Y-11104674D01*
X14253396Y-11104674D02*
X14272444Y-11114198D01*
X14272444Y-11114198D02*
X14281968Y-11123722D01*
X14281968Y-11123722D02*
X14291491Y-11142770D01*
X14291491Y-11142770D02*
X14291491Y-11190388D01*
X14291491Y-11190388D02*
X14281968Y-11209436D01*
X14281968Y-11209436D02*
X14272444Y-11218960D01*
X14272444Y-11218960D02*
X14253396Y-11228484D01*
X14253396Y-11228484D02*
X14196253Y-11228484D01*
X14196253Y-11228484D02*
X14177206Y-11218960D01*
X14177206Y-11218960D02*
X14167682Y-11209436D01*
X14529587Y-11228484D02*
X14529587Y-11028484D01*
X14615301Y-11228484D02*
X14615301Y-11123722D01*
X14615301Y-11123722D02*
X14605777Y-11104674D01*
X14605777Y-11104674D02*
X14586730Y-11095150D01*
X14586730Y-11095150D02*
X14558158Y-11095150D01*
X14558158Y-11095150D02*
X14539111Y-11104674D01*
X14539111Y-11104674D02*
X14529587Y-11114198D01*
X14739111Y-11228484D02*
X14720063Y-11218960D01*
X14720063Y-11218960D02*
X14710539Y-11209436D01*
X14710539Y-11209436D02*
X14701015Y-11190388D01*
X14701015Y-11190388D02*
X14701015Y-11133246D01*
X14701015Y-11133246D02*
X14710539Y-11114198D01*
X14710539Y-11114198D02*
X14720063Y-11104674D01*
X14720063Y-11104674D02*
X14739111Y-11095150D01*
X14739111Y-11095150D02*
X14767682Y-11095150D01*
X14767682Y-11095150D02*
X14786730Y-11104674D01*
X14786730Y-11104674D02*
X14796253Y-11114198D01*
X14796253Y-11114198D02*
X14805777Y-11133246D01*
X14805777Y-11133246D02*
X14805777Y-11190388D01*
X14805777Y-11190388D02*
X14796253Y-11209436D01*
X14796253Y-11209436D02*
X14786730Y-11218960D01*
X14786730Y-11218960D02*
X14767682Y-11228484D01*
X14767682Y-11228484D02*
X14739111Y-11228484D01*
X14920063Y-11228484D02*
X14901015Y-11218960D01*
X14901015Y-11218960D02*
X14891492Y-11199912D01*
X14891492Y-11199912D02*
X14891492Y-11028484D01*
X15072444Y-11218960D02*
X15053396Y-11228484D01*
X15053396Y-11228484D02*
X15015301Y-11228484D01*
X15015301Y-11228484D02*
X14996253Y-11218960D01*
X14996253Y-11218960D02*
X14986730Y-11199912D01*
X14986730Y-11199912D02*
X14986730Y-11123722D01*
X14986730Y-11123722D02*
X14996253Y-11104674D01*
X14996253Y-11104674D02*
X15015301Y-11095150D01*
X15015301Y-11095150D02*
X15053396Y-11095150D01*
X15053396Y-11095150D02*
X15072444Y-11104674D01*
X15072444Y-11104674D02*
X15081968Y-11123722D01*
X15081968Y-11123722D02*
X15081968Y-11142770D01*
X15081968Y-11142770D02*
X14986730Y-11161817D01*
X15158158Y-11218960D02*
X15177206Y-11228484D01*
X15177206Y-11228484D02*
X15215301Y-11228484D01*
X15215301Y-11228484D02*
X15234349Y-11218960D01*
X15234349Y-11218960D02*
X15243873Y-11199912D01*
X15243873Y-11199912D02*
X15243873Y-11190388D01*
X15243873Y-11190388D02*
X15234349Y-11171341D01*
X15234349Y-11171341D02*
X15215301Y-11161817D01*
X15215301Y-11161817D02*
X15186730Y-11161817D01*
X15186730Y-11161817D02*
X15167682Y-11152293D01*
X15167682Y-11152293D02*
X15158158Y-11133246D01*
X15158158Y-11133246D02*
X15158158Y-11123722D01*
X15158158Y-11123722D02*
X15167682Y-11104674D01*
X15167682Y-11104674D02*
X15186730Y-11095150D01*
X15186730Y-11095150D02*
X15215301Y-11095150D01*
X15215301Y-11095150D02*
X15234349Y-11104674D01*
X15310539Y-11304674D02*
X15320063Y-11295150D01*
X15320063Y-11295150D02*
X15339111Y-11266579D01*
X15339111Y-11266579D02*
X15348634Y-11247531D01*
X15348634Y-11247531D02*
X15358158Y-11218960D01*
X15358158Y-11218960D02*
X15367682Y-11171341D01*
X15367682Y-11171341D02*
X15367682Y-11133246D01*
X15367682Y-11133246D02*
X15358158Y-11085627D01*
X15358158Y-11085627D02*
X15348634Y-11057055D01*
X15348634Y-11057055D02*
X15339111Y-11038008D01*
X15339111Y-11038008D02*
X15320063Y-11009436D01*
X15320063Y-11009436D02*
X15310539Y-10999912D01*
X10245000Y-11501000D02*
X10345000Y-11401000D01*
X10245000Y-11301000D01*
X10145000Y-11401000D01*
X10245000Y-11501000D01*
X10586729Y-11292484D02*
X10710539Y-11292484D01*
X10710539Y-11292484D02*
X10643872Y-11368674D01*
X10643872Y-11368674D02*
X10672444Y-11368674D01*
X10672444Y-11368674D02*
X10691491Y-11378198D01*
X10691491Y-11378198D02*
X10701015Y-11387722D01*
X10701015Y-11387722D02*
X10710539Y-11406769D01*
X10710539Y-11406769D02*
X10710539Y-11454388D01*
X10710539Y-11454388D02*
X10701015Y-11473436D01*
X10701015Y-11473436D02*
X10691491Y-11482960D01*
X10691491Y-11482960D02*
X10672444Y-11492484D01*
X10672444Y-11492484D02*
X10615301Y-11492484D01*
X10615301Y-11492484D02*
X10596253Y-11482960D01*
X10596253Y-11482960D02*
X10586729Y-11473436D01*
X10796253Y-11473436D02*
X10805777Y-11482960D01*
X10805777Y-11482960D02*
X10796253Y-11492484D01*
X10796253Y-11492484D02*
X10786729Y-11482960D01*
X10786729Y-11482960D02*
X10796253Y-11473436D01*
X10796253Y-11473436D02*
X10796253Y-11492484D01*
X10881967Y-11311531D02*
X10891491Y-11302008D01*
X10891491Y-11302008D02*
X10910539Y-11292484D01*
X10910539Y-11292484D02*
X10958158Y-11292484D01*
X10958158Y-11292484D02*
X10977206Y-11302008D01*
X10977206Y-11302008D02*
X10986729Y-11311531D01*
X10986729Y-11311531D02*
X10996253Y-11330579D01*
X10996253Y-11330579D02*
X10996253Y-11349627D01*
X10996253Y-11349627D02*
X10986729Y-11378198D01*
X10986729Y-11378198D02*
X10872444Y-11492484D01*
X10872444Y-11492484D02*
X10996253Y-11492484D01*
X11120063Y-11292484D02*
X11139110Y-11292484D01*
X11139110Y-11292484D02*
X11158158Y-11302008D01*
X11158158Y-11302008D02*
X11167682Y-11311531D01*
X11167682Y-11311531D02*
X11177206Y-11330579D01*
X11177206Y-11330579D02*
X11186729Y-11368674D01*
X11186729Y-11368674D02*
X11186729Y-11416293D01*
X11186729Y-11416293D02*
X11177206Y-11454388D01*
X11177206Y-11454388D02*
X11167682Y-11473436D01*
X11167682Y-11473436D02*
X11158158Y-11482960D01*
X11158158Y-11482960D02*
X11139110Y-11492484D01*
X11139110Y-11492484D02*
X11120063Y-11492484D01*
X11120063Y-11492484D02*
X11101015Y-11482960D01*
X11101015Y-11482960D02*
X11091491Y-11473436D01*
X11091491Y-11473436D02*
X11081967Y-11454388D01*
X11081967Y-11454388D02*
X11072444Y-11416293D01*
X11072444Y-11416293D02*
X11072444Y-11368674D01*
X11072444Y-11368674D02*
X11081967Y-11330579D01*
X11081967Y-11330579D02*
X11091491Y-11311531D01*
X11091491Y-11311531D02*
X11101015Y-11302008D01*
X11101015Y-11302008D02*
X11120063Y-11292484D01*
X11310539Y-11292484D02*
X11329586Y-11292484D01*
X11329586Y-11292484D02*
X11348634Y-11302008D01*
X11348634Y-11302008D02*
X11358158Y-11311531D01*
X11358158Y-11311531D02*
X11367682Y-11330579D01*
X11367682Y-11330579D02*
X11377205Y-11368674D01*
X11377205Y-11368674D02*
X11377205Y-11416293D01*
X11377205Y-11416293D02*
X11367682Y-11454388D01*
X11367682Y-11454388D02*
X11358158Y-11473436D01*
X11358158Y-11473436D02*
X11348634Y-11482960D01*
X11348634Y-11482960D02*
X11329586Y-11492484D01*
X11329586Y-11492484D02*
X11310539Y-11492484D01*
X11310539Y-11492484D02*
X11291491Y-11482960D01*
X11291491Y-11482960D02*
X11281967Y-11473436D01*
X11281967Y-11473436D02*
X11272444Y-11454388D01*
X11272444Y-11454388D02*
X11262920Y-11416293D01*
X11262920Y-11416293D02*
X11262920Y-11368674D01*
X11262920Y-11368674D02*
X11272444Y-11330579D01*
X11272444Y-11330579D02*
X11281967Y-11311531D01*
X11281967Y-11311531D02*
X11291491Y-11302008D01*
X11291491Y-11302008D02*
X11310539Y-11292484D01*
X11462920Y-11492484D02*
X11462920Y-11359150D01*
X11462920Y-11378198D02*
X11472444Y-11368674D01*
X11472444Y-11368674D02*
X11491491Y-11359150D01*
X11491491Y-11359150D02*
X11520063Y-11359150D01*
X11520063Y-11359150D02*
X11539110Y-11368674D01*
X11539110Y-11368674D02*
X11548634Y-11387722D01*
X11548634Y-11387722D02*
X11548634Y-11492484D01*
X11548634Y-11387722D02*
X11558158Y-11368674D01*
X11558158Y-11368674D02*
X11577205Y-11359150D01*
X11577205Y-11359150D02*
X11605777Y-11359150D01*
X11605777Y-11359150D02*
X11624825Y-11368674D01*
X11624825Y-11368674D02*
X11634348Y-11387722D01*
X11634348Y-11387722D02*
X11634348Y-11492484D01*
X11729586Y-11492484D02*
X11729586Y-11359150D01*
X11729586Y-11378198D02*
X11739110Y-11368674D01*
X11739110Y-11368674D02*
X11758158Y-11359150D01*
X11758158Y-11359150D02*
X11786729Y-11359150D01*
X11786729Y-11359150D02*
X11805777Y-11368674D01*
X11805777Y-11368674D02*
X11815301Y-11387722D01*
X11815301Y-11387722D02*
X11815301Y-11492484D01*
X11815301Y-11387722D02*
X11824825Y-11368674D01*
X11824825Y-11368674D02*
X11843872Y-11359150D01*
X11843872Y-11359150D02*
X11872444Y-11359150D01*
X11872444Y-11359150D02*
X11891491Y-11368674D01*
X11891491Y-11368674D02*
X11901015Y-11387722D01*
X11901015Y-11387722D02*
X11901015Y-11492484D01*
X12291491Y-11282960D02*
X12120063Y-11540103D01*
X12548634Y-11292484D02*
X12567682Y-11292484D01*
X12567682Y-11292484D02*
X12586729Y-11302008D01*
X12586729Y-11302008D02*
X12596253Y-11311531D01*
X12596253Y-11311531D02*
X12605777Y-11330579D01*
X12605777Y-11330579D02*
X12615301Y-11368674D01*
X12615301Y-11368674D02*
X12615301Y-11416293D01*
X12615301Y-11416293D02*
X12605777Y-11454388D01*
X12605777Y-11454388D02*
X12596253Y-11473436D01*
X12596253Y-11473436D02*
X12586729Y-11482960D01*
X12586729Y-11482960D02*
X12567682Y-11492484D01*
X12567682Y-11492484D02*
X12548634Y-11492484D01*
X12548634Y-11492484D02*
X12529587Y-11482960D01*
X12529587Y-11482960D02*
X12520063Y-11473436D01*
X12520063Y-11473436D02*
X12510539Y-11454388D01*
X12510539Y-11454388D02*
X12501015Y-11416293D01*
X12501015Y-11416293D02*
X12501015Y-11368674D01*
X12501015Y-11368674D02*
X12510539Y-11330579D01*
X12510539Y-11330579D02*
X12520063Y-11311531D01*
X12520063Y-11311531D02*
X12529587Y-11302008D01*
X12529587Y-11302008D02*
X12548634Y-11292484D01*
X12701015Y-11473436D02*
X12710539Y-11482960D01*
X12710539Y-11482960D02*
X12701015Y-11492484D01*
X12701015Y-11492484D02*
X12691491Y-11482960D01*
X12691491Y-11482960D02*
X12701015Y-11473436D01*
X12701015Y-11473436D02*
X12701015Y-11492484D01*
X12901015Y-11492484D02*
X12786729Y-11492484D01*
X12843872Y-11492484D02*
X12843872Y-11292484D01*
X12843872Y-11292484D02*
X12824825Y-11321055D01*
X12824825Y-11321055D02*
X12805777Y-11340103D01*
X12805777Y-11340103D02*
X12786729Y-11349627D01*
X12977206Y-11311531D02*
X12986729Y-11302008D01*
X12986729Y-11302008D02*
X13005777Y-11292484D01*
X13005777Y-11292484D02*
X13053396Y-11292484D01*
X13053396Y-11292484D02*
X13072444Y-11302008D01*
X13072444Y-11302008D02*
X13081968Y-11311531D01*
X13081968Y-11311531D02*
X13091491Y-11330579D01*
X13091491Y-11330579D02*
X13091491Y-11349627D01*
X13091491Y-11349627D02*
X13081968Y-11378198D01*
X13081968Y-11378198D02*
X12967682Y-11492484D01*
X12967682Y-11492484D02*
X13091491Y-11492484D01*
X13262920Y-11292484D02*
X13224825Y-11292484D01*
X13224825Y-11292484D02*
X13205777Y-11302008D01*
X13205777Y-11302008D02*
X13196253Y-11311531D01*
X13196253Y-11311531D02*
X13177206Y-11340103D01*
X13177206Y-11340103D02*
X13167682Y-11378198D01*
X13167682Y-11378198D02*
X13167682Y-11454388D01*
X13167682Y-11454388D02*
X13177206Y-11473436D01*
X13177206Y-11473436D02*
X13186729Y-11482960D01*
X13186729Y-11482960D02*
X13205777Y-11492484D01*
X13205777Y-11492484D02*
X13243872Y-11492484D01*
X13243872Y-11492484D02*
X13262920Y-11482960D01*
X13262920Y-11482960D02*
X13272444Y-11473436D01*
X13272444Y-11473436D02*
X13281968Y-11454388D01*
X13281968Y-11454388D02*
X13281968Y-11406769D01*
X13281968Y-11406769D02*
X13272444Y-11387722D01*
X13272444Y-11387722D02*
X13262920Y-11378198D01*
X13262920Y-11378198D02*
X13243872Y-11368674D01*
X13243872Y-11368674D02*
X13205777Y-11368674D01*
X13205777Y-11368674D02*
X13186729Y-11378198D01*
X13186729Y-11378198D02*
X13177206Y-11387722D01*
X13177206Y-11387722D02*
X13167682Y-11406769D01*
X13405777Y-11292484D02*
X13424825Y-11292484D01*
X13424825Y-11292484D02*
X13443872Y-11302008D01*
X13443872Y-11302008D02*
X13453396Y-11311531D01*
X13453396Y-11311531D02*
X13462920Y-11330579D01*
X13462920Y-11330579D02*
X13472444Y-11368674D01*
X13472444Y-11368674D02*
X13472444Y-11416293D01*
X13472444Y-11416293D02*
X13462920Y-11454388D01*
X13462920Y-11454388D02*
X13453396Y-11473436D01*
X13453396Y-11473436D02*
X13443872Y-11482960D01*
X13443872Y-11482960D02*
X13424825Y-11492484D01*
X13424825Y-11492484D02*
X13405777Y-11492484D01*
X13405777Y-11492484D02*
X13386729Y-11482960D01*
X13386729Y-11482960D02*
X13377206Y-11473436D01*
X13377206Y-11473436D02*
X13367682Y-11454388D01*
X13367682Y-11454388D02*
X13358158Y-11416293D01*
X13358158Y-11416293D02*
X13358158Y-11368674D01*
X13358158Y-11368674D02*
X13367682Y-11330579D01*
X13367682Y-11330579D02*
X13377206Y-11311531D01*
X13377206Y-11311531D02*
X13386729Y-11302008D01*
X13386729Y-11302008D02*
X13405777Y-11292484D01*
X13548634Y-11292484D02*
X13548634Y-11330579D01*
X13624825Y-11292484D02*
X13624825Y-11330579D01*
X13920063Y-11568674D02*
X13910539Y-11559150D01*
X13910539Y-11559150D02*
X13891491Y-11530579D01*
X13891491Y-11530579D02*
X13881968Y-11511531D01*
X13881968Y-11511531D02*
X13872444Y-11482960D01*
X13872444Y-11482960D02*
X13862920Y-11435341D01*
X13862920Y-11435341D02*
X13862920Y-11397246D01*
X13862920Y-11397246D02*
X13872444Y-11349627D01*
X13872444Y-11349627D02*
X13881968Y-11321055D01*
X13881968Y-11321055D02*
X13891491Y-11302008D01*
X13891491Y-11302008D02*
X13910539Y-11273436D01*
X13910539Y-11273436D02*
X13920063Y-11263912D01*
X13986730Y-11311531D02*
X13996253Y-11302008D01*
X13996253Y-11302008D02*
X14015301Y-11292484D01*
X14015301Y-11292484D02*
X14062920Y-11292484D01*
X14062920Y-11292484D02*
X14081968Y-11302008D01*
X14081968Y-11302008D02*
X14091491Y-11311531D01*
X14091491Y-11311531D02*
X14101015Y-11330579D01*
X14101015Y-11330579D02*
X14101015Y-11349627D01*
X14101015Y-11349627D02*
X14091491Y-11378198D01*
X14091491Y-11378198D02*
X13977206Y-11492484D01*
X13977206Y-11492484D02*
X14101015Y-11492484D01*
X14339111Y-11492484D02*
X14339111Y-11292484D01*
X14424825Y-11492484D02*
X14424825Y-11387722D01*
X14424825Y-11387722D02*
X14415301Y-11368674D01*
X14415301Y-11368674D02*
X14396253Y-11359150D01*
X14396253Y-11359150D02*
X14367682Y-11359150D01*
X14367682Y-11359150D02*
X14348634Y-11368674D01*
X14348634Y-11368674D02*
X14339111Y-11378198D01*
X14548634Y-11492484D02*
X14529587Y-11482960D01*
X14529587Y-11482960D02*
X14520063Y-11473436D01*
X14520063Y-11473436D02*
X14510539Y-11454388D01*
X14510539Y-11454388D02*
X14510539Y-11397246D01*
X14510539Y-11397246D02*
X14520063Y-11378198D01*
X14520063Y-11378198D02*
X14529587Y-11368674D01*
X14529587Y-11368674D02*
X14548634Y-11359150D01*
X14548634Y-11359150D02*
X14577206Y-11359150D01*
X14577206Y-11359150D02*
X14596253Y-11368674D01*
X14596253Y-11368674D02*
X14605777Y-11378198D01*
X14605777Y-11378198D02*
X14615301Y-11397246D01*
X14615301Y-11397246D02*
X14615301Y-11454388D01*
X14615301Y-11454388D02*
X14605777Y-11473436D01*
X14605777Y-11473436D02*
X14596253Y-11482960D01*
X14596253Y-11482960D02*
X14577206Y-11492484D01*
X14577206Y-11492484D02*
X14548634Y-11492484D01*
X14729587Y-11492484D02*
X14710539Y-11482960D01*
X14710539Y-11482960D02*
X14701015Y-11463912D01*
X14701015Y-11463912D02*
X14701015Y-11292484D01*
X14881968Y-11482960D02*
X14862920Y-11492484D01*
X14862920Y-11492484D02*
X14824825Y-11492484D01*
X14824825Y-11492484D02*
X14805777Y-11482960D01*
X14805777Y-11482960D02*
X14796253Y-11463912D01*
X14796253Y-11463912D02*
X14796253Y-11387722D01*
X14796253Y-11387722D02*
X14805777Y-11368674D01*
X14805777Y-11368674D02*
X14824825Y-11359150D01*
X14824825Y-11359150D02*
X14862920Y-11359150D01*
X14862920Y-11359150D02*
X14881968Y-11368674D01*
X14881968Y-11368674D02*
X14891492Y-11387722D01*
X14891492Y-11387722D02*
X14891492Y-11406769D01*
X14891492Y-11406769D02*
X14796253Y-11425817D01*
X14967682Y-11482960D02*
X14986730Y-11492484D01*
X14986730Y-11492484D02*
X15024825Y-11492484D01*
X15024825Y-11492484D02*
X15043873Y-11482960D01*
X15043873Y-11482960D02*
X15053396Y-11463912D01*
X15053396Y-11463912D02*
X15053396Y-11454388D01*
X15053396Y-11454388D02*
X15043873Y-11435341D01*
X15043873Y-11435341D02*
X15024825Y-11425817D01*
X15024825Y-11425817D02*
X14996253Y-11425817D01*
X14996253Y-11425817D02*
X14977206Y-11416293D01*
X14977206Y-11416293D02*
X14967682Y-11397246D01*
X14967682Y-11397246D02*
X14967682Y-11387722D01*
X14967682Y-11387722D02*
X14977206Y-11368674D01*
X14977206Y-11368674D02*
X14996253Y-11359150D01*
X14996253Y-11359150D02*
X15024825Y-11359150D01*
X15024825Y-11359150D02*
X15043873Y-11368674D01*
X15120063Y-11568674D02*
X15129587Y-11559150D01*
X15129587Y-11559150D02*
X15148634Y-11530579D01*
X15148634Y-11530579D02*
X15158158Y-11511531D01*
X15158158Y-11511531D02*
X15167682Y-11482960D01*
X15167682Y-11482960D02*
X15177206Y-11435341D01*
X15177206Y-11435341D02*
X15177206Y-11397246D01*
X15177206Y-11397246D02*
X15167682Y-11349627D01*
X15167682Y-11349627D02*
X15158158Y-11321055D01*
X15158158Y-11321055D02*
X15148634Y-11302008D01*
X15148634Y-11302008D02*
X15129587Y-11273436D01*
X15129587Y-11273436D02*
X15120063Y-11263912D01*
M02*
